<svg width="2567" height="1069" viewBox="0 0 2567 1069" fill="none" xmlns="http://www.w3.org/2000/svg">
<path d="M136 882.967C113.6 882.967 92.8 880.167 73.6 874.567C54.4 869.767 44.8 861.367 44.8 849.367C44.8 841.367 49.2 834.167 58 827.767C67.6 821.367 78.8 816.567 91.6 813.367C105.2 809.367 117.2 807.367 127.6 807.367C162 807.367 195.2 812.567 227.2 822.967C259.2 832.567 292 842.567 325.6 852.967C360 862.567 396.8 867.367 436 867.367C484 867.367 530 857.367 574 837.367C618 817.367 657.2 790.167 691.6 755.767C726 721.367 752.8 682.567 772 639.367C792 595.367 802 549.767 802 502.567C802 452.167 793.2 408.167 775.6 370.567C758.8 332.967 731.6 303.767 694 282.967C657.2 262.167 609.2 251.767 550 251.767C505.2 251.767 461.6 260.967 419.2 279.367C376.8 296.967 338.8 320.167 305.2 348.967C271.6 376.967 244.8 407.367 224.8 440.167C204.8 472.967 194.8 503.767 194.8 532.567C194.8 547.767 200.8 563.367 212.8 579.367C224.8 595.367 245.6 603.367 275.2 603.367C303.2 603.367 333.6 596.167 366.4 581.767C399.2 566.567 430.4 546.567 460 521.767C490.4 496.167 516.4 467.767 538 436.567C559.6 404.567 572.8 371.767 577.6 338.167C579.2 327.767 581.6 322.967 584.8 323.767C588 324.567 589.6 329.367 589.6 338.167C589.6 372.567 580.8 406.567 563.2 440.167C545.6 472.967 522.4 502.567 493.6 528.967C464.8 555.367 432.8 576.567 397.6 592.567C363.2 608.567 328.4 616.567 293.2 616.567C262 616.567 237.2 611.367 218.8 600.967C200.4 590.567 187.2 577.767 179.2 562.567C171.2 546.567 167.2 530.967 167.2 515.767C167.2 485.367 176.4 454.167 194.8 422.167C214 389.367 240.4 359.367 274 332.167C308.4 304.967 348.4 282.967 394 266.167C440.4 249.367 490.4 240.967 544 240.967C593.6 240.967 636.4 247.767 672.4 261.367C708.4 274.167 738 292.167 761.2 315.367C784.4 337.767 801.6 364.167 812.8 394.567C824.8 424.167 830.8 455.767 830.8 489.367C830.8 545.367 820 597.367 798.4 645.367C777.6 692.567 748.8 733.767 712 768.967C675.2 804.167 633.2 831.767 586 851.767C538.8 870.967 489.6 880.567 438.4 880.567C400.8 880.567 365.6 876.167 332.8 867.367C300 858.567 268 850.167 236.8 842.167C206.4 833.367 174 828.967 139.6 828.967C132.4 828.967 122 829.367 108.4 830.167C95.6 830.967 84 832.967 73.6 836.167C63.2 838.567 58 842.967 58 849.367C58 854.967 62.8 859.367 72.4 862.567C82 865.767 93.2 867.767 106 868.567C118.8 869.367 129.2 869.767 137.2 869.767C174 869.767 209.2 862.967 242.8 849.367C276.4 834.967 308.8 815.367 340 790.567C371.2 765.767 400.8 737.767 428.8 706.567C457.6 674.567 485.2 640.967 511.6 605.767C545.2 560.167 581.2 516.967 619.6 476.167C658 435.367 697.2 399.367 737.2 368.167C777.2 336.167 816.4 311.367 854.8 293.767C893.2 275.367 929.2 266.167 962.8 266.167C973.2 266.167 977.2 268.167 974.8 272.167C972.4 275.367 968 276.967 961.6 276.967C934.4 276.967 905.2 286.167 874 304.567C842.8 322.967 810.8 347.767 778 378.967C746 410.167 715.2 444.567 685.6 482.167C656 519.767 629.2 557.767 605.2 596.167C585.2 628.167 560.4 660.967 530.8 694.567C501.2 728.167 466.8 759.367 427.6 788.167C388.4 816.167 344.4 838.967 295.6 856.567C246.8 874.167 193.6 882.967 136 882.967Z" fill="#4B2A4A"/>
<g filter="url(#filter0_d_715_46)">
<path d="M233 904.8C210.6 904.8 189.8 902 170.6 896.4C151.4 891.6 141.8 883.2 141.8 871.2C141.8 863.2 146.2 856 155 849.6C164.6 843.2 175.8 838.4 188.6 835.2C202.2 831.2 214.2 829.2 224.6 829.2C259 829.2 292.2 834.4 324.2 844.8C356.2 854.4 389 864.4 422.6 874.8C457 884.4 493.8 889.2 533 889.2C581 889.2 627 879.2 671 859.2C715 839.2 754.2 812 788.6 777.6C823 743.2 849.8 704.4 869 661.2C889 617.2 899 571.6 899 524.4C899 474 890.2 430 872.6 392.4C855.8 354.8 828.6 325.6 791 304.8C754.2 284 706.2 273.6 647 273.6C602.2 273.6 558.6 282.8 516.2 301.2C473.8 318.8 435.8 342 402.2 370.8C368.6 398.8 341.8 429.2 321.8 462C301.8 494.8 291.8 525.6 291.8 554.4C291.8 569.6 297.8 585.2 309.8 601.2C321.8 617.2 342.6 625.2 372.2 625.2C400.2 625.2 430.6 618 463.4 603.6C496.2 588.4 527.4 568.4 557 543.6C587.4 518 613.4 489.6 635 458.4C656.6 426.4 669.8 393.6 674.6 360C676.2 349.6 678.6 344.8 681.8 345.6C685 346.4 686.6 351.2 686.6 360C686.6 394.4 677.8 428.4 660.2 462C642.6 494.8 619.4 524.4 590.6 550.8C561.8 577.2 529.8 598.4 494.6 614.4C460.2 630.4 425.4 638.4 390.2 638.4C359 638.4 334.2 633.2 315.8 622.8C297.4 612.4 284.2 599.6 276.2 584.4C268.2 568.4 264.2 552.8 264.2 537.6C264.2 507.2 273.4 476 291.8 444C311 411.2 337.4 381.2 371 354C405.4 326.8 445.4 304.8 491 288C537.4 271.2 587.4 262.8 641 262.8C690.6 262.8 733.4 269.6 769.4 283.2C805.4 296 835 314 858.2 337.2C881.4 359.6 898.6 386 909.8 416.4C921.8 446 927.8 477.6 927.8 511.2C927.8 567.2 917 619.2 895.4 667.2C874.6 714.4 845.8 755.6 809 790.8C772.2 826 730.2 853.6 683 873.6C635.8 892.8 586.6 902.4 535.4 902.4C497.8 902.4 462.6 898 429.8 889.2C397 880.4 365 872 333.8 864C303.4 855.2 271 850.8 236.6 850.8C229.4 850.8 219 851.2 205.4 852C192.6 852.8 181 854.8 170.6 858C160.2 860.4 155 864.8 155 871.2C155 876.8 159.8 881.2 169.4 884.4C179 887.6 190.2 889.6 203 890.4C215.8 891.2 226.2 891.6 234.2 891.6C271 891.6 306.2 884.8 339.8 871.2C373.4 856.8 405.8 837.2 437 812.4C468.2 787.6 497.8 759.6 525.8 728.4C554.6 696.4 582.2 662.8 608.6 627.6C642.2 582 678.2 538.8 716.6 498C755 457.2 794.2 421.2 834.2 390C874.2 358 913.4 333.2 951.8 315.6C990.2 297.2 1026.2 288 1059.8 288C1070.2 288 1074.2 290 1071.8 294C1069.4 297.2 1065 298.8 1058.6 298.8C1031.4 298.8 1002.2 308 971 326.4C939.8 344.8 907.8 369.6 875 400.8C843 432 812.2 466.4 782.6 504C753 541.6 726.2 579.6 702.2 618C682.2 650 657.4 682.8 627.8 716.4C598.2 750 563.8 781.2 524.6 810C485.4 838 441.4 860.8 392.6 878.4C343.8 896 290.6 904.8 233 904.8Z" fill="url(#paint0_linear_715_46)"/>
</g>
<path d="M952.227 177.94C953.157 178.838 956.034 179.218 957.299 179.264C958.853 179.321 959.69 178.796 961.068 178.475C964.063 177.777 955.244 175.739 952.184 175.801" stroke="#A493A3" stroke-width="7" stroke-linecap="round"/>
<g filter="url(#filter1_d_715_46)">
<path d="M148.969 881.413C71.7445 890.991 20.0534 854.487 9 845.061L9 279.486C16.6823 267.257 65.9263 243.128 201.246 241.836M212.698 241.781C208.814 241.781 204.997 241.8 201.246 241.836M212.698 241.781L201.246 241.836M212.698 241.781C520.612 -234.244 781.156 147.519 819.053 189.937C834.337 186.987 912.527 167.387 955 177.409" stroke="url(#paint1_diamond_715_46)" stroke-width="10" stroke-linecap="round" shape-rendering="crispEdges"/>
</g>
<g filter="url(#filter2_d_715_46)">
<path d="M952 828.33C943.367 828.33 936.953 827.097 932.76 824.63C928.567 821.917 925.853 818.957 924.62 815.75C923.387 812.543 922.77 810.077 922.77 808.35C922.77 805.143 923.88 802.43 926.1 800.21C928.32 797.99 931.403 796.88 935.35 796.88C937.323 796.88 939.173 797.497 940.9 798.73C942.38 799.717 943.12 801.32 943.12 803.54C943.12 806.007 942.257 807.857 940.53 809.09C938.803 810.077 936.83 810.57 934.61 810.57C932.883 810.57 931.403 810.447 930.17 810.2C928.937 809.707 928.32 809.46 928.32 809.46C928.32 812.667 929.923 815.997 933.13 819.45C936.337 822.657 941.763 824.26 949.41 824.26C960.757 824.26 971.117 821.053 980.49 814.64C989.863 807.98 998.743 799.47 1007.13 789.11C1015.52 778.75 1023.78 767.65 1031.92 755.81C1040.06 743.97 1048.57 732.623 1057.45 721.77C1069.29 707.217 1081.38 693.65 1093.71 681.07C1106.04 668.243 1118.62 657.267 1131.45 648.14C1144.28 638.767 1157.35 632.23 1170.67 628.53C1172.64 628.037 1173.75 628.407 1174 629.64C1174.25 630.873 1173.38 631.737 1171.41 632.23C1160.8 635.19 1150.44 640.863 1140.33 649.25C1130.22 657.637 1120.23 667.873 1110.36 679.96C1100.74 691.8 1091 704.503 1081.13 718.07C1071.51 731.39 1061.64 744.587 1051.53 757.66C1041.66 770.733 1031.43 782.573 1020.82 793.18C1010.21 803.787 999.237 812.297 987.89 818.71C976.543 825.123 964.58 828.33 952 828.33ZM1082.98 747.3C1068.43 747.3 1057.08 745.327 1048.94 741.38C1040.8 737.433 1036.73 732.13 1036.73 725.47C1036.73 722.017 1037.84 719.303 1040.06 717.33C1042.28 715.11 1044.75 713.63 1047.46 712.89C1050.42 711.903 1052.76 711.41 1054.49 711.41C1055.97 711.41 1056.71 711.903 1056.71 712.89C1056.71 713.63 1056.09 714.123 1054.86 714.37C1051.65 714.863 1048.69 716.467 1045.98 719.18C1043.51 721.647 1042.28 723.99 1042.28 726.21C1042.28 729.417 1045.36 733.117 1051.53 737.31C1057.94 741.503 1067.81 743.6 1081.13 743.6C1087.79 743.6 1095.44 742.12 1104.07 739.16C1112.7 735.953 1120.97 731.267 1128.86 725.1C1137 718.687 1143.66 710.917 1148.84 701.79C1154.02 692.417 1156.61 681.563 1156.61 669.23C1156.61 655.417 1150.44 645.673 1138.11 640C1126.02 634.08 1109.37 631.12 1088.16 631.12C1070.65 631.12 1054 633.71 1038.21 638.89C1022.42 644.07 1008.36 650.73 996.03 658.87C983.943 667.01 974.323 675.767 967.17 685.14C960.263 694.513 956.81 703.393 956.81 711.78C956.81 720.167 958.783 726.21 962.73 729.91C966.923 733.61 971.857 735.46 977.53 735.46C984.437 735.46 991.343 733.363 998.25 729.17C1005.4 724.73 1012.06 719.18 1018.23 712.52C1024.4 705.613 1029.95 698.46 1034.88 691.06C1039.81 683.413 1043.76 676.383 1046.72 669.97C1049.68 663.557 1051.28 658.623 1051.53 655.17C1051.78 652.703 1052.27 651.47 1053.01 651.47C1054 651.47 1054.61 652.333 1054.86 654.06C1055.6 661.707 1054.24 670.463 1050.79 680.33C1047.58 689.95 1042.53 699.323 1035.62 708.45C1028.96 717.33 1020.7 724.73 1010.83 730.65C1000.96 736.57 989.987 739.53 977.9 739.53C970.253 739.53 964.087 737.187 959.4 732.5C954.713 727.567 952.37 720.537 952.37 711.41C952.37 702.53 955.947 693.28 963.1 683.66C970.253 673.793 980.12 664.667 992.7 656.28C1005.28 647.893 1019.71 641.11 1035.99 635.93C1052.52 630.503 1069.91 627.79 1088.16 627.79C1109.62 627.79 1126.52 630.257 1138.85 635.19C1151.43 640.123 1160.31 646.66 1165.49 654.8C1170.92 662.693 1173.63 671.08 1173.63 679.96C1173.63 686.867 1171.29 694.267 1166.6 702.16C1162.16 710.053 1155.87 717.453 1147.73 724.36C1139.59 731.02 1129.97 736.57 1118.87 741.01C1108.02 745.203 1096.05 747.3 1082.98 747.3ZM1259.03 600.78C1261.99 601.273 1265.07 601.643 1268.28 601.89C1271.73 601.89 1275.19 601.52 1278.64 600.78C1278.39 601.027 1276.3 603.987 1272.35 609.66C1268.4 615.087 1262.98 622.487 1256.07 631.86C1249.41 640.987 1241.89 651.347 1233.5 662.94C1225.36 674.533 1216.85 686.497 1207.97 698.83C1199.34 710.917 1190.83 722.757 1182.44 734.35C1174.3 745.697 1166.78 756.057 1159.87 765.43C1153.21 774.803 1147.91 782.327 1143.96 788C1140.01 793.673 1137.92 796.633 1137.67 796.88C1137.67 796.88 1137.79 797.127 1138.04 797.62C1138.29 797.867 1138.41 798.113 1138.41 798.36C1144.58 791.7 1151.24 784.423 1158.39 776.53C1165.54 768.637 1172.82 761.237 1180.22 754.33C1187.62 747.177 1194.9 741.38 1202.05 736.94C1209.45 732.5 1216.23 730.28 1222.4 730.28C1230.29 730.28 1235.35 732.13 1237.57 735.83C1240.04 739.283 1241.27 742.367 1241.27 745.08C1241.27 750.26 1239.54 755.933 1236.09 762.1C1232.64 768.267 1228.32 774.433 1223.14 780.6C1218.21 786.767 1213.15 792.563 1207.97 797.99C1203.04 803.17 1198.84 807.733 1195.39 811.68C1191.94 815.627 1190.21 818.463 1190.21 820.19C1190.21 822.163 1191.69 823.397 1194.65 823.89C1197.86 824.137 1200.45 824.26 1202.42 824.26C1208.09 824.26 1214.26 822.163 1220.92 817.97C1227.58 813.777 1234.12 808.597 1240.53 802.43C1246.94 796.263 1252.74 790.22 1257.92 784.3C1263.1 778.38 1267.05 773.693 1269.76 770.24L1272.72 772.46C1270.25 775.42 1266.55 779.983 1261.62 786.15C1256.69 792.07 1250.77 798.36 1243.86 805.02C1237.2 811.433 1229.92 816.983 1222.03 821.67C1214.14 826.11 1205.87 828.33 1197.24 828.33C1194.03 828.33 1190.33 827.467 1186.14 825.74C1181.95 824.26 1179.85 820.93 1179.85 815.75C1179.85 811.557 1181.45 806.747 1184.66 801.32C1188.11 795.647 1192.31 789.85 1197.24 783.93C1202.17 777.763 1207.11 771.843 1212.04 766.17C1217.22 760.497 1221.41 755.317 1224.62 750.63C1228.07 745.697 1229.8 741.75 1229.8 738.79C1229.8 735.583 1227.46 733.98 1222.77 733.98C1216.85 733.98 1209.7 736.817 1201.31 742.49C1193.17 747.917 1184.54 755.193 1175.41 764.32C1166.28 773.447 1157.16 783.313 1148.03 793.92C1139.15 804.527 1130.89 815.01 1123.24 825.37C1120.03 824.877 1116.46 824.63 1112.51 824.63C1108.56 824.63 1104.86 825.123 1101.41 826.11C1101.41 826.11 1103.63 823.027 1108.07 816.86C1112.51 810.447 1118.55 801.937 1126.2 791.33C1133.6 780.477 1141.99 768.39 1151.36 755.07C1160.73 741.503 1170.35 727.69 1180.22 713.63C1190.09 699.323 1199.71 685.51 1209.08 672.19C1218.45 658.623 1226.84 646.537 1234.24 635.93C1241.89 625.077 1247.93 616.567 1252.37 610.4C1256.81 603.987 1259.03 600.78 1259.03 600.78ZM1332.89 730.65C1345.23 730.65 1351.39 736.57 1351.39 748.41C1351.39 757.537 1349.3 766.91 1345.1 776.53C1340.91 785.903 1335.24 794.537 1328.08 802.43C1320.93 810.077 1313.16 816.367 1304.77 821.3C1296.39 825.987 1287.88 828.33 1279.24 828.33C1272.58 828.33 1267.03 826.727 1262.59 823.52C1257.91 820.067 1255.56 814.517 1255.56 806.87C1255.56 799.717 1257.66 791.823 1261.85 783.19C1266.05 774.31 1271.72 765.923 1278.87 758.03C1286.27 750.137 1294.54 743.6 1303.66 738.42C1313.04 733.24 1322.78 730.65 1332.89 730.65ZM1336.96 735.83C1332.77 735.83 1327.84 737.68 1322.16 741.38C1316.49 745.08 1310.69 749.89 1304.77 755.81C1298.85 761.73 1293.3 768.143 1288.12 775.05C1283.19 781.71 1279.12 788.247 1275.91 794.66C1272.95 801.073 1271.47 806.5 1271.47 810.94C1271.47 815.873 1272.83 819.327 1275.54 821.3C1278.26 823.027 1281.34 823.89 1284.79 823.89C1290.47 823.89 1296.88 821.547 1304.03 816.86C1311.19 811.927 1318.09 805.76 1324.75 798.36C1331.41 790.96 1336.84 783.19 1341.03 775.05C1345.47 766.663 1347.69 759.017 1347.69 752.11C1347.69 745.697 1346.58 741.38 1344.36 739.16C1342.14 736.94 1339.68 735.83 1336.96 735.83ZM1343.62 773.94C1344.86 773.94 1345.35 774.433 1345.1 775.42C1345.1 776.16 1344.49 776.53 1343.25 776.53C1342.27 776.53 1340.79 777.887 1338.81 780.6C1337.09 783.067 1335.48 785.657 1334 788.37C1332.52 791.083 1331.78 792.563 1331.78 792.81C1331.78 798.483 1333.88 801.32 1338.07 801.32C1342.02 801.32 1346.46 799.47 1351.39 795.77C1356.57 792.07 1361.51 787.877 1366.19 783.19C1371.13 778.257 1375.07 773.94 1378.03 770.24L1380.99 772.83C1377.79 776.53 1373.72 780.97 1368.78 786.15C1363.85 791.083 1358.67 795.523 1353.24 799.47C1347.82 803.17 1342.76 805.02 1338.07 805.02C1334.13 805.02 1331.41 804.157 1329.93 802.43C1328.45 800.703 1327.71 797.62 1327.71 793.18C1327.71 787.26 1329.69 782.573 1333.63 779.12C1337.83 775.667 1341.16 773.94 1343.62 773.94ZM1452.01 665.16C1454.23 666.147 1457.44 666.64 1461.63 666.64C1466.07 666.393 1469.53 666.023 1471.99 665.53C1464.1 676.383 1455.34 688.347 1445.72 701.42C1436.1 714.493 1426.36 727.567 1416.49 740.64C1406.87 753.467 1397.87 765.553 1389.48 776.9C1381.34 788 1374.81 797.373 1369.87 805.02C1364.94 812.667 1362.47 817.477 1362.47 819.45C1362.47 820.93 1363.34 822.04 1365.06 822.78C1366.54 823.52 1368.52 823.89 1370.98 823.89C1376.41 823.89 1382.33 822.04 1388.74 818.34C1395.4 814.393 1401.94 809.583 1408.35 803.91C1415.01 797.99 1421.06 792.07 1426.48 786.15C1432.16 779.983 1436.6 774.68 1439.8 770.24L1442.76 772.46C1439.31 776.9 1434.75 782.203 1429.07 788.37C1423.4 794.537 1417.11 800.703 1410.2 806.87C1403.3 813.037 1396.14 818.217 1388.74 822.41C1381.59 826.357 1374.68 828.33 1368.02 828.33C1363.34 828.33 1359.64 827.343 1356.92 825.37C1353.96 823.643 1352.48 820.56 1352.48 816.12C1352.48 812.173 1354.83 806.13 1359.51 797.99C1364.2 789.603 1370.24 779.983 1377.64 769.13C1385.29 758.277 1393.55 746.807 1402.43 734.72C1411.31 722.387 1420.07 710.3 1428.7 698.46C1437.58 686.373 1445.35 675.273 1452.01 665.16ZM1411.31 706.6C1408.85 706.6 1407.61 705.86 1407.61 704.38C1407.61 703.147 1408.85 702.53 1411.31 702.53H1481.61C1482.35 702.53 1483.09 702.653 1483.83 702.9C1484.82 703.147 1485.31 703.64 1485.31 704.38C1485.31 705.367 1484.82 705.983 1483.83 706.23C1483.09 706.477 1482.35 706.6 1481.61 706.6H1411.31ZM1503.08 730.65C1515.41 730.65 1521.58 736.57 1521.58 748.41C1521.58 757.537 1519.48 766.91 1515.29 776.53C1511.1 785.903 1505.42 794.537 1498.27 802.43C1491.12 810.077 1483.35 816.367 1474.96 821.3C1466.57 825.987 1458.06 828.33 1449.43 828.33C1442.77 828.33 1437.22 826.727 1432.78 823.52C1428.09 820.067 1425.75 814.517 1425.75 806.87C1425.75 799.717 1427.85 791.823 1432.04 783.19C1436.23 774.31 1441.91 765.923 1449.06 758.03C1456.46 750.137 1464.72 743.6 1473.85 738.42C1483.22 733.24 1492.97 730.65 1503.08 730.65ZM1507.15 735.83C1502.96 735.83 1498.02 737.68 1492.35 741.38C1486.68 745.08 1480.88 749.89 1474.96 755.81C1469.04 761.73 1463.49 768.143 1458.31 775.05C1453.38 781.71 1449.31 788.247 1446.1 794.66C1443.14 801.073 1441.66 806.5 1441.66 810.94C1441.66 815.873 1443.02 819.327 1445.73 821.3C1448.44 823.027 1451.53 823.89 1454.98 823.89C1460.65 823.89 1467.07 821.547 1474.22 816.86C1481.37 811.927 1488.28 805.76 1494.94 798.36C1501.6 790.96 1507.03 783.19 1511.22 775.05C1515.66 766.663 1517.88 759.017 1517.88 752.11C1517.88 745.697 1516.77 741.38 1514.55 739.16C1512.33 736.94 1509.86 735.83 1507.15 735.83ZM1513.81 773.94C1515.04 773.94 1515.54 774.433 1515.29 775.42C1515.29 776.16 1514.67 776.53 1513.44 776.53C1512.45 776.53 1510.97 777.887 1509 780.6C1507.27 783.067 1505.67 785.657 1504.19 788.37C1502.71 791.083 1501.97 792.563 1501.97 792.81C1501.97 798.483 1504.07 801.32 1508.26 801.32C1512.21 801.32 1516.65 799.47 1521.58 795.77C1526.76 792.07 1531.69 787.877 1536.38 783.19C1541.31 778.257 1545.26 773.94 1548.22 770.24L1551.18 772.83C1547.97 776.53 1543.9 780.97 1538.97 786.15C1534.04 791.083 1528.86 795.523 1523.43 799.47C1518 803.17 1512.95 805.02 1508.26 805.02C1504.31 805.02 1501.6 804.157 1500.12 802.43C1498.64 800.703 1497.9 797.62 1497.9 793.18C1497.9 787.26 1499.87 782.573 1503.82 779.12C1508.01 775.667 1511.34 773.94 1513.81 773.94ZM1617.39 730.65C1624.79 730.65 1629.85 731.76 1632.56 733.98C1635.52 736.2 1637 739.16 1637 742.86C1637 746.313 1636.14 749.89 1634.41 753.59C1632.68 757.043 1630.83 760.25 1628.86 763.21C1627.13 766.17 1626.02 768.143 1625.53 769.13C1624.05 771.597 1622.32 773.2 1620.35 773.94C1618.38 774.433 1618.99 772.46 1622.2 768.02C1626.39 762.593 1629.48 757.413 1631.45 752.48C1633.42 747.3 1633.55 743.107 1631.82 739.9C1630.34 736.447 1626.15 734.72 1619.24 734.72C1614.55 734.72 1609 736.817 1602.59 741.01C1596.42 744.957 1590.01 750.26 1583.35 756.92C1576.69 763.333 1570.4 770.363 1564.48 778.01C1558.81 785.41 1554.12 792.563 1550.42 799.47C1546.97 806.13 1545.24 811.803 1545.24 816.49C1545.24 819.943 1545.98 822.04 1547.46 822.78C1548.94 823.52 1550.79 823.89 1553.01 823.89C1558.68 823.89 1565.22 821.423 1572.62 816.49C1580.02 811.31 1587.67 804.773 1595.56 796.88C1603.45 788.987 1610.98 780.847 1618.13 772.46C1625.53 763.827 1631.94 756.057 1637.37 749.15C1642.8 741.997 1646.62 736.817 1648.84 733.61C1651.55 734.35 1654.27 734.843 1656.98 735.09C1659.94 735.09 1663.76 734.72 1668.45 733.98C1652.17 752.727 1637 771.843 1622.94 791.33C1608.88 810.817 1595.44 829.44 1582.61 847.2C1569.78 864.96 1557.2 880.747 1544.87 894.56C1532.29 908.62 1519.59 919.72 1506.76 927.86C1493.93 936 1480.49 940.07 1466.43 940.07C1461.74 940.07 1458.04 939.083 1455.33 937.11C1452.37 935.137 1450.89 932.547 1450.89 929.34C1450.89 923.913 1453.73 918.24 1459.4 912.32C1465.07 906.647 1472.47 901.097 1481.6 895.67C1490.73 890.243 1500.59 884.94 1511.2 879.76C1521.56 874.827 1531.67 870.387 1541.54 866.44C1551.16 862.493 1559.3 859.163 1565.96 856.45C1577.55 851.763 1589.15 845.843 1600.74 838.69C1612.33 831.537 1623.19 823.767 1633.3 815.38C1643.66 806.993 1652.79 798.853 1660.68 790.96C1668.82 783.067 1675.11 776.037 1679.55 769.87C1679.55 769.87 1679.92 770.363 1680.66 771.35C1681.65 772.337 1682.14 772.83 1682.14 772.83C1675.97 780.97 1667.46 790.343 1656.61 800.95C1645.76 811.31 1632.81 821.67 1617.76 832.03C1602.71 842.39 1585.82 851.517 1567.07 859.41C1560.66 862.123 1552.76 865.453 1543.39 869.4C1534.02 873.347 1524.27 877.663 1514.16 882.35C1504.05 887.283 1494.55 892.34 1485.67 897.52C1476.79 902.947 1469.64 908.25 1464.21 913.43C1458.54 918.857 1455.7 924.037 1455.7 928.97C1455.7 930.697 1456.56 932.423 1458.29 934.15C1460.02 935.877 1462.73 936.74 1466.43 936.74C1473.34 936.74 1480.98 933.78 1489.37 927.86C1497.76 921.94 1506.64 914.17 1516.01 904.55C1525.14 894.93 1534.39 884.447 1543.76 873.1C1552.89 862 1561.64 850.9 1570.03 839.8C1578.42 828.7 1585.94 818.71 1592.6 809.83C1599.51 800.95 1605.06 794.29 1609.25 789.85C1609.25 789.85 1609 789.727 1608.51 789.48C1608.26 789.233 1608.14 789.11 1608.14 789.11C1607.15 790.343 1604.69 793.057 1600.74 797.25C1597.04 801.197 1592.35 805.637 1586.68 810.57C1581.01 815.257 1574.96 819.45 1568.55 823.15C1562.14 826.603 1555.85 828.33 1549.68 828.33C1543.27 828.33 1538.95 826.48 1536.73 822.78C1534.26 819.08 1533.03 814.887 1533.03 810.2C1533.03 802.307 1535.25 793.797 1539.69 784.67C1543.88 775.543 1549.8 766.91 1557.45 758.77C1565.34 750.63 1574.35 743.97 1584.46 738.79C1594.82 733.363 1605.8 730.65 1617.39 730.65ZM1678.27 776.53C1677.28 777.517 1676.54 777.64 1676.05 776.9C1675.56 775.913 1675.43 774.927 1675.68 773.94C1679.87 769.747 1683.94 764.813 1687.89 759.14C1692.08 753.467 1695.54 748.163 1698.25 743.23C1701.21 738.297 1702.94 734.967 1703.43 733.24C1703.92 733.24 1704.66 732.87 1705.65 732.13C1706.88 731.39 1707.99 731.143 1708.98 731.39C1708.73 733.117 1708.36 734.72 1707.87 736.2C1707.62 737.68 1708.49 739.037 1710.46 740.27C1712.43 741.503 1716.5 742.737 1722.67 743.97C1728.84 745.203 1738.21 746.56 1750.79 748.04C1752.02 748.287 1752.89 748.78 1753.38 749.52C1754.12 750.013 1753.75 750.877 1752.27 752.11C1747.58 755.81 1742.4 760.497 1736.73 766.17C1731.06 771.843 1725.51 777.887 1720.08 784.3C1714.9 790.467 1710.58 796.51 1707.13 802.43C1703.92 808.35 1702.32 813.283 1702.32 817.23C1702.32 821.67 1704.29 823.89 1708.24 823.89C1713.17 823.89 1718.72 821.917 1724.89 817.97C1731.3 814.023 1737.72 809.213 1744.13 803.54C1750.54 797.62 1756.46 791.7 1761.89 785.78C1767.56 779.613 1772.25 774.557 1775.95 770.61L1778.91 772.83C1775.46 776.283 1771.02 781.093 1765.59 787.26C1760.16 793.427 1754 799.717 1747.09 806.13C1740.43 812.297 1733.28 817.6 1725.63 822.04C1717.98 826.233 1710.09 828.33 1701.95 828.33C1697.26 828.33 1693.07 827.22 1689.37 825C1685.67 823.027 1683.82 819.327 1683.82 813.9C1683.82 808.72 1686.04 803.293 1690.48 797.62C1694.92 791.947 1700.47 786.273 1707.13 780.6C1713.79 774.68 1720.7 769.13 1727.85 763.95C1735.25 758.523 1741.79 753.59 1747.46 749.15L1750.05 752.48C1747.58 751.493 1743.27 750.63 1737.1 749.89C1730.93 748.903 1724.52 747.67 1717.86 746.19C1711.2 744.463 1705.4 742.243 1700.47 739.53C1695.78 736.817 1693.44 733.117 1693.44 728.43C1693.44 725.963 1694.43 723.003 1696.4 719.55C1698.62 715.85 1701.58 714 1705.28 714C1708.73 714 1711.08 714.74 1712.31 716.22C1713.54 717.453 1714.16 719.18 1714.16 721.4C1714.16 722.88 1712.93 725.963 1710.46 730.65C1707.99 735.09 1704.91 740.393 1701.21 746.56C1697.51 752.48 1693.56 758.153 1689.37 763.58C1685.42 769.007 1681.72 773.323 1678.27 776.53ZM1856.13 760.25C1855.14 762.223 1853.66 763.95 1851.69 765.43C1849.96 766.91 1848.6 767.897 1847.62 768.39C1846.88 768.637 1847.12 767.897 1848.36 766.17C1852.8 760.743 1855.63 755.687 1856.87 751C1858.35 746.313 1858.35 742.613 1856.87 739.9C1855.63 736.94 1853.17 735.46 1849.47 735.46C1844.53 735.46 1838.74 737.433 1832.08 741.38C1825.42 745.327 1818.51 750.507 1811.36 756.92C1804.45 763.333 1797.91 770.24 1791.75 777.64C1785.83 784.793 1781.02 791.823 1777.32 798.73C1773.62 805.39 1771.77 811.187 1771.77 816.12C1771.77 819.82 1772.51 822.163 1773.99 823.15C1775.47 824.137 1776.95 824.63 1778.43 824.63C1784.1 824.63 1790.64 822.04 1798.04 816.86C1805.68 811.433 1813.45 804.65 1821.35 796.51C1829.24 788.37 1836.76 780.107 1843.92 771.72C1851.07 763.087 1857.24 755.317 1862.42 748.41C1867.84 741.503 1871.54 736.817 1873.52 734.35C1876.23 735.337 1879.44 735.707 1883.14 735.46C1887.08 735.213 1890.41 734.967 1893.13 734.72C1892.63 735.46 1890.04 738.543 1885.36 743.97C1880.92 749.397 1875.49 755.933 1869.08 763.58C1862.91 770.98 1856.62 778.627 1850.21 786.52C1844.04 794.413 1838.86 801.32 1834.67 807.24C1830.47 813.16 1828.38 817.107 1828.38 819.08C1828.38 821.547 1828.87 823.15 1829.86 823.89C1831.09 824.383 1832.94 824.63 1835.41 824.63C1838.37 824.383 1842.68 823.027 1848.36 820.56C1854.03 817.847 1861.31 812.667 1870.19 805.02C1879.07 797.373 1889.8 786.027 1902.38 770.98C1902.38 770.98 1902.87 771.35 1903.86 772.09C1905.09 772.83 1905.71 773.2 1905.71 773.2C1890.91 790.467 1877.22 804.033 1864.64 813.9C1852.06 823.52 1840.59 828.33 1830.23 828.33C1824.8 828.33 1821.1 827.467 1819.13 825.74C1817.4 824.013 1816.54 821.547 1816.54 818.34C1816.54 815.873 1817.52 812.913 1819.5 809.46C1821.72 805.76 1824.18 802.183 1826.9 798.73C1829.61 795.277 1831.83 792.563 1833.56 790.59C1833.56 790.59 1833.31 790.467 1832.82 790.22C1832.32 789.973 1832.08 789.85 1832.08 789.85C1826.4 796.757 1820.36 803.17 1813.95 809.09C1807.53 815.01 1801.12 819.697 1794.71 823.15C1788.54 826.603 1782.5 828.33 1776.58 828.33C1770.41 828.33 1766.09 826.85 1763.63 823.89C1761.16 820.683 1759.93 815.873 1759.93 809.46C1759.93 803.293 1761.9 795.893 1765.85 787.26C1769.79 778.38 1775.47 769.747 1782.87 761.36C1790.27 752.727 1799.15 745.573 1809.51 739.9C1820.11 734.227 1831.95 731.39 1845.03 731.39C1851.44 731.39 1855.88 732.623 1858.35 735.09C1860.81 737.31 1861.92 740.023 1861.68 743.23C1861.43 746.437 1860.69 749.643 1859.46 752.85C1858.22 756.057 1857.11 758.523 1856.13 760.25ZM1962.97 689.21C1965.93 689.703 1969.51 689.95 1973.7 689.95C1978.14 689.95 1981.84 689.58 1984.8 688.84C1983.32 690.813 1980.98 693.773 1977.77 697.72C1974.81 701.42 1971.24 705.86 1967.04 711.04C1962.85 715.973 1958.41 721.277 1953.72 726.95C1949.28 732.623 1944.6 738.543 1939.66 744.71C1934.98 750.63 1930.41 756.427 1925.97 762.1C1921.53 767.527 1917.46 772.707 1913.76 777.64C1910.31 782.573 1907.35 786.767 1904.88 790.22L1905.99 791.33C1912.16 785.903 1917.96 780.6 1923.38 775.42C1929.06 770.24 1934.48 765.43 1939.66 760.99C1944.84 756.55 1949.9 752.48 1954.83 748.78C1959.77 745.08 1964.58 741.873 1969.26 739.16C1973.95 736.447 1978.39 734.35 1982.58 732.87C1987.02 731.39 1991.34 730.65 1995.53 730.65C2001.95 730.65 2006.02 731.76 2007.74 733.98C2009.47 736.2 2010.33 739.037 2010.33 742.49C2010.33 749.397 2008.11 756.057 2003.67 762.47C1999.23 768.637 1993.81 774.557 1987.39 780.23C1980.98 785.903 1974.44 791.083 1967.78 795.77C1961.37 800.457 1955.94 804.773 1951.5 808.72C1947.06 812.42 1944.84 815.503 1944.84 817.97C1944.84 820.437 1945.71 822.163 1947.43 823.15C1949.16 824.137 1951.26 824.63 1953.72 824.63C1961.37 824.63 1969.39 821.793 1977.77 816.12C1986.16 810.447 1994.42 803.54 2002.56 795.4C2010.7 787.013 2018.1 778.75 2024.76 770.61L2028.09 772.83C2021.19 780.723 2013.54 788.987 2005.15 797.62C1997.01 806.253 1988.5 813.53 1979.62 819.45C1970.99 825.37 1962.48 828.33 1954.09 828.33C1947.19 828.33 1942.62 826.85 1940.4 823.89C1938.43 820.683 1937.44 817.723 1937.44 815.01C1937.44 808.103 1939.66 801.567 1944.1 795.4C1948.54 789.233 1953.97 783.437 1960.38 778.01C1966.8 772.583 1973.21 767.527 1979.62 762.84C1986.04 758.153 1991.46 753.837 1995.9 749.89C2000.34 745.943 2002.56 742.367 2002.56 739.16C2002.56 737.68 2002.07 736.57 2001.08 735.83C2000.1 734.843 1998.25 734.35 1995.53 734.35C1989.61 734.35 1982.83 736.447 1975.18 740.64C1967.54 744.587 1959.52 749.767 1951.13 756.18C1942.99 762.593 1934.85 769.5 1926.71 776.9C1918.82 784.3 1911.42 791.577 1904.51 798.73C1897.85 805.883 1892.3 812.05 1887.86 817.23C1883.18 822.41 1879.97 825.863 1878.24 827.59C1877.01 829.07 1874.54 832.4 1870.84 837.58C1867.14 842.76 1862.95 848.927 1858.26 856.08C1853.33 863.48 1848.27 871.127 1843.09 879.02C1837.91 886.913 1833.1 894.313 1828.66 901.22C1823.98 908.373 1820.28 914.293 1817.56 918.98C1814.6 923.667 1812.88 926.503 1812.38 927.49C1811.4 928.23 1809.18 928.723 1805.72 928.97C1802.27 929.217 1798.94 929.217 1795.73 928.97C1792.28 928.723 1789.94 928.23 1788.7 927.49C1788.95 926.997 1791.54 923.42 1796.47 916.76C1801.41 910.347 1807.82 901.59 1815.71 890.49C1823.61 879.637 1832.61 867.303 1842.72 853.49C1852.59 839.923 1862.83 825.863 1873.43 811.31C1884.04 796.757 1894.4 782.573 1904.51 768.76C1914.63 754.7 1923.88 741.997 1932.26 730.65C1940.9 719.057 1947.93 709.683 1953.35 702.53C1958.78 695.13 1961.99 690.69 1962.97 689.21ZM2190.78 731.02C2194.23 732.007 2197.81 732.5 2201.51 732.5C2205.21 732.253 2209.03 732.007 2212.98 731.76C2206.32 738.173 2198.79 745.82 2190.41 754.7C2182.27 763.333 2174.37 772.09 2166.73 780.97C2159.33 789.603 2153.16 797.373 2148.23 804.28C2143.29 810.94 2140.83 815.503 2140.83 817.97C2140.83 819.697 2141.44 821.3 2142.68 822.78C2143.91 824.013 2146.01 824.63 2148.97 824.63C2157.6 824.63 2166.48 822.04 2175.61 816.86C2184.98 811.68 2193.98 805.143 2202.62 797.25C2211.5 789.11 2219.76 780.723 2227.41 772.09C2235.05 763.21 2241.71 755.193 2247.39 748.04C2253.31 740.64 2257.62 735.213 2260.34 731.76C2262.31 732.253 2265.52 732.5 2269.96 732.5C2274.64 732.5 2277.85 732.377 2279.58 732.13C2254.17 762.717 2231.85 790.837 2212.61 816.49C2193.61 841.897 2176.47 863.727 2161.18 881.98C2145.88 900.48 2131.33 914.787 2117.52 924.9C2103.46 935.013 2088.78 940.07 2073.49 940.07C2064.11 940.07 2059.43 936.37 2059.43 928.97C2059.43 923.543 2062.88 917.87 2069.79 911.95C2076.45 906.03 2085.45 899.863 2096.8 893.45C2108.14 887.283 2120.72 881.117 2134.54 874.95C2148.35 868.783 2162.41 862.863 2176.72 857.19C2195.46 849.79 2210.88 841.65 2222.97 832.77C2235.3 824.137 2246.03 814.64 2255.16 804.28C2264.53 793.92 2274.03 782.573 2283.65 770.24L2286.61 772.09C2276.74 784.67 2267 796.263 2257.38 806.87C2247.76 817.23 2236.78 826.85 2224.45 835.73C2212.11 844.61 2196.57 852.873 2177.83 860.52C2163.77 866.193 2150.08 871.99 2136.76 877.91C2123.19 884.077 2110.98 889.997 2100.13 895.67C2089.03 901.59 2080.27 907.387 2073.86 913.06C2067.2 918.733 2063.87 924.037 2063.87 928.97C2063.87 931.93 2064.85 933.78 2066.83 934.52C2068.8 935.507 2071.39 936 2074.6 936C2082.24 936 2090.51 933.04 2099.39 927.12C2108.02 921.2 2117.15 913.183 2126.77 903.07C2136.39 892.957 2146.13 881.487 2156 868.66C2166.11 856.08 2176.35 843.007 2186.71 829.44C2197.07 815.873 2207.55 802.677 2218.16 789.85L2216.68 789.11C2216.18 789.85 2214.46 791.7 2211.5 794.66C2208.54 797.62 2204.71 800.95 2200.03 804.65C2195.34 808.35 2190.04 812.05 2184.12 815.75C2178.2 819.45 2171.91 822.533 2165.25 825C2158.83 827.22 2152.3 828.33 2145.64 828.33C2140.95 828.33 2137.37 827.22 2134.91 825C2132.19 823.027 2130.84 820.19 2130.84 816.49C2130.84 810.57 2132.81 803.91 2136.76 796.51C2140.7 788.863 2145.88 781.093 2152.3 773.2C2158.46 765.307 2165 757.66 2171.91 750.26C2178.81 742.86 2185.1 736.447 2190.78 731.02Z" fill="#4B2A4A"/>
<path d="M2143.92 600.78C2146.88 601.273 2149.97 601.643 2153.17 601.89C2156.63 601.89 2160.08 601.52 2163.53 600.78C2163.29 601.027 2161.19 603.987 2157.24 609.66C2153.3 615.087 2147.87 622.487 2140.96 631.86C2134.3 640.987 2126.78 651.347 2118.39 662.94C2110.25 674.533 2101.74 686.497 2092.86 698.83C2084.23 710.917 2075.72 722.757 2067.33 734.35C2059.19 745.697 2051.67 756.057 2044.76 765.43C2038.1 774.803 2032.8 782.327 2028.85 788C2024.91 793.673 2022.81 796.633 2022.56 796.88C2022.56 796.88 2022.69 797.127 2022.93 797.62C2023.18 797.867 2023.3 798.113 2023.3 798.36C2029.47 791.7 2036.13 784.423 2043.28 776.53C2050.44 768.637 2057.71 761.237 2065.11 754.33C2072.51 747.177 2079.79 741.38 2086.94 736.94C2094.34 732.5 2101.13 730.28 2107.29 730.28C2115.19 730.28 2120.24 732.13 2122.46 735.83C2124.93 739.283 2126.16 742.367 2126.16 745.08C2126.16 750.26 2124.44 755.933 2120.98 762.1C2117.53 768.267 2113.21 774.433 2108.03 780.6C2103.1 786.767 2098.04 792.563 2092.86 797.99C2087.93 803.17 2083.74 807.733 2080.28 811.68C2076.83 815.627 2075.1 818.463 2075.1 820.19C2075.1 822.163 2076.58 823.397 2079.54 823.89C2082.75 824.137 2085.34 824.26 2087.31 824.26C2092.99 824.26 2099.15 822.163 2105.81 817.97C2112.47 813.777 2119.01 808.597 2125.42 802.43C2131.84 796.263 2137.63 790.22 2142.81 784.3C2147.99 778.38 2151.94 773.693 2154.65 770.24L2157.61 772.46C2155.15 775.42 2151.45 779.983 2146.51 786.15C2141.58 792.07 2135.66 798.36 2128.75 805.02C2122.09 811.433 2114.82 816.983 2106.92 821.67C2099.03 826.11 2090.77 828.33 2082.13 828.33C2078.93 828.33 2075.23 827.467 2071.03 825.74C2066.84 824.26 2064.74 820.93 2064.74 815.75C2064.74 811.557 2066.35 806.747 2069.55 801.32C2073.01 795.647 2077.2 789.85 2082.13 783.93C2087.07 777.763 2092 771.843 2096.93 766.17C2102.11 760.497 2106.31 755.317 2109.51 750.63C2112.97 745.697 2114.69 741.75 2114.69 738.79C2114.69 735.583 2112.35 733.98 2107.66 733.98C2101.74 733.98 2094.59 736.817 2086.2 742.49C2078.06 747.917 2069.43 755.193 2060.3 764.32C2051.18 773.447 2042.05 783.313 2032.92 793.92C2024.04 804.527 2015.78 815.01 2008.13 825.37C2004.93 824.877 2001.35 824.63 1997.4 824.63C1993.46 824.63 1989.76 825.123 1986.3 826.11C1986.3 826.11 1988.52 823.027 1992.96 816.86C1997.4 810.447 2003.45 801.937 2011.09 791.33C2018.49 780.477 2026.88 768.39 2036.25 755.07C2045.63 741.503 2055.25 727.69 2065.11 713.63C2074.98 699.323 2084.6 685.51 2093.97 672.19C2103.35 658.623 2111.73 646.537 2119.13 635.93C2126.78 625.077 2132.82 616.567 2137.26 610.4C2141.7 603.987 2143.92 600.78 2143.92 600.78Z" fill="url(#paint2_linear_715_46)"/>
</g>
<defs>
<filter id="filter0_d_715_46" x="137.8" y="262.8" width="941.601" height="650" filterUnits="userSpaceOnUse" color-interpolation-filters="sRGB">
<feFlood flood-opacity="0" result="BackgroundImageFix"/>
<feColorMatrix in="SourceAlpha" type="matrix" values="0 0 0 0 0 0 0 0 0 0 0 0 0 0 0 0 0 0 127 0" result="hardAlpha"/>
<feOffset dy="4"/>
<feGaussianBlur stdDeviation="2"/>
<feComposite in2="hardAlpha" operator="out"/>
<feColorMatrix type="matrix" values="0 0 0 0 0 0 0 0 0 0 0 0 0 0 0 0 0 0 0.25 0"/>
<feBlend mode="normal" in2="BackgroundImageFix" result="effect1_dropShadow_715_46"/>
<feBlend mode="normal" in="SourceGraphic" in2="effect1_dropShadow_715_46" result="shape"/>
</filter>
<filter id="filter1_d_715_46" x="0" y="0.000213623" width="964.001" height="896.001" filterUnits="userSpaceOnUse" color-interpolation-filters="sRGB">
<feFlood flood-opacity="0" result="BackgroundImageFix"/>
<feColorMatrix in="SourceAlpha" type="matrix" values="0 0 0 0 0 0 0 0 0 0 0 0 0 0 0 0 0 0 127 0" result="hardAlpha"/>
<feOffset dy="4"/>
<feGaussianBlur stdDeviation="2"/>
<feComposite in2="hardAlpha" operator="out"/>
<feColorMatrix type="matrix" values="0 0 0 0 0 0 0 0 0 0 0 0 0 0 0 0 0 0 0.25 0"/>
<feBlend mode="normal" in2="BackgroundImageFix" result="effect1_dropShadow_715_46"/>
<feBlend mode="normal" in="SourceGraphic" in2="effect1_dropShadow_715_46" result="shape"/>
</filter>
<filter id="filter2_d_715_46" x="852.77" y="534.78" width="1503.84" height="479.29" filterUnits="userSpaceOnUse" color-interpolation-filters="sRGB">
<feFlood flood-opacity="0" result="BackgroundImageFix"/>
<feColorMatrix in="SourceAlpha" type="matrix" values="0 0 0 0 0 0 0 0 0 0 0 0 0 0 0 0 0 0 127 0" result="hardAlpha"/>
<feOffset dy="4"/>
<feGaussianBlur stdDeviation="35"/>
<feComposite in2="hardAlpha" operator="out"/>
<feColorMatrix type="matrix" values="0 0 0 0 0 0 0 0 0 0 0 0 0 0 0 0 0 0 0.25 0"/>
<feBlend mode="normal" in2="BackgroundImageFix" result="effect1_dropShadow_715_46"/>
<feBlend mode="normal" in="SourceGraphic" in2="effect1_dropShadow_715_46" result="shape"/>
</filter>
<linearGradient id="paint0_linear_715_46" x1="248.5" y1="1259" x2="1635.5" y2="-315" gradientUnits="userSpaceOnUse">
<stop offset="0.255909" stop-color="#4B2A4A"/>
<stop offset="1" stop-color="white"/>
</linearGradient>
<radialGradient id="paint1_diamond_715_46" cx="0" cy="0" r="1" gradientUnits="userSpaceOnUse" gradientTransform="translate(-618 593) rotate(-27.0231) scale(2685.16 2492.14)">
<stop offset="0.470909" stop-color="#4B2A4A"/>
<stop offset="1" stop-color="white"/>
</radialGradient>
<linearGradient id="paint2_linear_715_46" x1="952" y1="750" x2="2567" y2="750" gradientUnits="userSpaceOnUse">
<stop offset="0.640909" stop-color="#4B2A4A"/>
<stop offset="1" stop-color="white"/>
</linearGradient>
</defs>
</svg>
