<svg width="2567" height="1069" viewBox="0 0 2567 1069" fill="none" xmlns="http://www.w3.org/2000/svg">
<path d="M136 882.967C113.6 882.967 92.8 880.167 73.6 874.567C54.4 869.767 44.8 861.367 44.8 849.367C44.8 841.367 49.2 834.167 58 827.767C67.6 821.367 78.8 816.567 91.6 813.367C105.2 809.367 117.2 807.367 127.6 807.367C162 807.367 195.2 812.567 227.2 822.967C259.2 832.567 292 842.567 325.6 852.967C360 862.567 396.8 867.367 436 867.367C484 867.367 530 857.367 574 837.367C618 817.367 657.2 790.167 691.6 755.767C726 721.367 752.8 682.567 772 639.367C792 595.367 802 549.767 802 502.567C802 452.167 793.2 408.167 775.6 370.567C758.8 332.967 731.6 303.767 694 282.967C657.2 262.167 609.2 251.767 550 251.767C505.2 251.767 461.6 260.967 419.2 279.367C376.8 296.967 338.8 320.167 305.2 348.967C271.6 376.967 244.8 407.367 224.8 440.167C204.8 472.967 194.8 503.767 194.8 532.567C194.8 547.767 200.8 563.367 212.8 579.367C224.8 595.367 245.6 603.367 275.2 603.367C303.2 603.367 333.6 596.167 366.4 581.767C399.2 566.567 430.4 546.567 460 521.767C490.4 496.167 516.4 467.767 538 436.567C559.6 404.567 572.8 371.767 577.6 338.167C579.2 327.767 581.6 322.967 584.8 323.767C588 324.567 589.6 329.367 589.6 338.167C589.6 372.567 580.8 406.567 563.2 440.167C545.6 472.967 522.4 502.567 493.6 528.967C464.8 555.367 432.8 576.567 397.6 592.567C363.2 608.567 328.4 616.567 293.2 616.567C262 616.567 237.2 611.367 218.8 600.967C200.4 590.567 187.2 577.767 179.2 562.567C171.2 546.567 167.2 530.967 167.2 515.767C167.2 485.367 176.4 454.167 194.8 422.167C214 389.367 240.4 359.367 274 332.167C308.4 304.967 348.4 282.967 394 266.167C440.4 249.367 490.4 240.967 544 240.967C593.6 240.967 636.4 247.767 672.4 261.367C708.4 274.167 738 292.167 761.2 315.367C784.4 337.767 801.6 364.167 812.8 394.567C824.8 424.167 830.8 455.767 830.8 489.367C830.8 545.367 820 597.367 798.4 645.367C777.6 692.567 748.8 733.767 712 768.967C675.2 804.167 633.2 831.767 586 851.767C538.8 870.967 489.6 880.567 438.4 880.567C400.8 880.567 365.6 876.167 332.8 867.367C300 858.567 268 850.167 236.8 842.167C206.4 833.367 174 828.967 139.6 828.967C132.4 828.967 122 829.367 108.4 830.167C95.6 830.967 84 832.967 73.6 836.167C63.2 838.567 58 842.967 58 849.367C58 854.967 62.8 859.367 72.4 862.567C82 865.767 93.2 867.767 106 868.567C118.8 869.367 129.2 869.767 137.2 869.767C174 869.767 209.2 862.967 242.8 849.367C276.4 834.967 308.8 815.367 340 790.567C371.2 765.767 400.8 737.767 428.8 706.567C457.6 674.567 485.2 640.967 511.6 605.767C545.2 560.167 581.2 516.967 619.6 476.167C658 435.367 697.2 399.367 737.2 368.167C777.2 336.167 816.4 311.367 854.8 293.767C893.2 275.367 929.2 266.167 962.8 266.167C973.2 266.167 977.2 268.167 974.8 272.167C972.4 275.367 968 276.967 961.6 276.967C934.4 276.967 905.2 286.167 874 304.567C842.8 322.967 810.8 347.767 778 378.967C746 410.167 715.2 444.567 685.6 482.167C656 519.767 629.2 557.767 605.2 596.167C585.2 628.167 560.4 660.967 530.8 694.567C501.2 728.167 466.8 759.367 427.6 788.167C388.4 816.167 344.4 838.967 295.6 856.567C246.8 874.167 193.6 882.967 136 882.967Z" fill="#4B2A4A"/>
<g filter="url(#filter0_d_678_297)">
<path d="M233 904.8C210.6 904.8 189.8 902 170.6 896.4C151.4 891.6 141.8 883.2 141.8 871.2C141.8 863.2 146.2 856 155 849.6C164.6 843.2 175.8 838.4 188.6 835.2C202.2 831.2 214.2 829.2 224.6 829.2C259 829.2 292.2 834.4 324.2 844.8C356.2 854.4 389 864.4 422.6 874.8C457 884.4 493.8 889.2 533 889.2C581 889.2 627 879.2 671 859.2C715 839.2 754.2 812 788.6 777.6C823 743.2 849.8 704.4 869 661.2C889 617.2 899 571.6 899 524.4C899 474 890.2 430 872.6 392.4C855.8 354.8 828.6 325.6 791 304.8C754.2 284 706.2 273.6 647 273.6C602.2 273.6 558.6 282.8 516.2 301.2C473.8 318.8 435.8 342 402.2 370.8C368.6 398.8 341.8 429.2 321.8 462C301.8 494.8 291.8 525.6 291.8 554.4C291.8 569.6 297.8 585.2 309.8 601.2C321.8 617.2 342.6 625.2 372.2 625.2C400.2 625.2 430.6 618 463.4 603.6C496.2 588.4 527.4 568.4 557 543.6C587.4 518 613.4 489.6 635 458.4C656.6 426.4 669.8 393.6 674.6 360C676.2 349.6 678.6 344.8 681.8 345.6C685 346.4 686.6 351.2 686.6 360C686.6 394.4 677.8 428.4 660.2 462C642.6 494.8 619.4 524.4 590.6 550.8C561.8 577.2 529.8 598.4 494.6 614.4C460.2 630.4 425.4 638.4 390.2 638.4C359 638.4 334.2 633.2 315.8 622.8C297.4 612.4 284.2 599.6 276.2 584.4C268.2 568.4 264.2 552.8 264.2 537.6C264.2 507.2 273.4 476 291.8 444C311 411.2 337.4 381.2 371 354C405.4 326.8 445.4 304.8 491 288C537.4 271.2 587.4 262.8 641 262.8C690.6 262.8 733.4 269.6 769.4 283.2C805.4 296 835 314 858.2 337.2C881.4 359.6 898.6 386 909.8 416.4C921.8 446 927.8 477.6 927.8 511.2C927.8 567.2 917 619.2 895.4 667.2C874.6 714.4 845.8 755.6 809 790.8C772.2 826 730.2 853.6 683 873.6C635.8 892.8 586.6 902.4 535.4 902.4C497.8 902.4 462.6 898 429.8 889.2C397 880.4 365 872 333.8 864C303.4 855.2 271 850.8 236.6 850.8C229.4 850.8 219 851.2 205.4 852C192.6 852.8 181 854.8 170.6 858C160.2 860.4 155 864.8 155 871.2C155 876.8 159.8 881.2 169.4 884.4C179 887.6 190.2 889.6 203 890.4C215.8 891.2 226.2 891.6 234.2 891.6C271 891.6 306.2 884.8 339.8 871.2C373.4 856.8 405.8 837.2 437 812.4C468.2 787.6 497.8 759.6 525.8 728.4C554.6 696.4 582.2 662.8 608.6 627.6C642.2 582 678.2 538.8 716.6 498C755 457.2 794.2 421.2 834.2 390C874.2 358 913.4 333.2 951.8 315.6C990.2 297.2 1026.2 288 1059.8 288C1070.2 288 1074.2 290 1071.8 294C1069.4 297.2 1065 298.8 1058.6 298.8C1031.4 298.8 1002.2 308 971 326.4C939.8 344.8 907.8 369.6 875 400.8C843 432 812.2 466.4 782.6 504C753 541.6 726.2 579.6 702.2 618C682.2 650 657.4 682.8 627.8 716.4C598.2 750 563.8 781.2 524.6 810C485.4 838 441.4 860.8 392.6 878.4C343.8 896 290.6 904.8 233 904.8Z" fill="url(#paint0_linear_678_297)"/>
</g>
<path d="M952.227 177.94C953.157 178.838 956.034 179.218 957.299 179.264C958.853 179.321 959.69 178.797 961.068 178.475C964.063 177.777 955.244 175.739 952.184 175.801" stroke="#A493A3" stroke-width="7" stroke-linecap="round"/>
<g filter="url(#filter1_d_678_297)">
<path d="M148.969 881.413C71.7445 890.991 20.0534 854.487 9 845.061L9 279.486C16.6823 267.257 65.9263 243.128 201.246 241.836M212.698 241.782C208.814 241.782 204.997 241.8 201.246 241.836M212.698 241.782L201.246 241.836M212.698 241.782C520.612 -234.244 781.156 147.519 819.053 189.937C834.337 186.988 912.527 167.387 955 177.409" stroke="url(#paint1_diamond_678_297)" stroke-width="10" stroke-linecap="round" shape-rendering="crispEdges"/>
</g>
<g filter="url(#filter2_d_678_297)">
<path d="M952 828.33C943.367 828.33 936.953 827.097 932.76 824.63C928.567 821.917 925.853 818.957 924.62 815.75C923.387 812.543 922.77 810.077 922.77 808.35C922.77 805.143 923.88 802.43 926.1 800.21C928.32 797.99 931.403 796.88 935.35 796.88C937.323 796.88 939.173 797.497 940.9 798.73C942.38 799.717 943.12 801.32 943.12 803.54C943.12 806.007 942.257 807.857 940.53 809.09C938.803 810.077 936.83 810.57 934.61 810.57C932.883 810.57 931.403 810.447 930.17 810.2C928.937 809.707 928.32 809.46 928.32 809.46C928.32 812.667 929.923 815.997 933.13 819.45C936.337 822.657 941.763 824.26 949.41 824.26C960.757 824.26 971.117 821.053 980.49 814.64C989.863 807.98 998.743 799.47 1007.13 789.11C1015.52 778.75 1023.78 767.65 1031.92 755.81C1040.06 743.97 1048.57 732.623 1057.45 721.77C1069.29 707.217 1081.38 693.65 1093.71 681.07C1106.04 668.243 1118.62 657.267 1131.45 648.14C1144.28 638.767 1157.35 632.23 1170.67 628.53C1172.64 628.037 1173.75 628.407 1174 629.64C1174.25 630.873 1173.38 631.737 1171.41 632.23C1160.8 635.19 1150.44 640.863 1140.33 649.25C1130.22 657.637 1120.23 667.873 1110.36 679.96C1100.74 691.8 1091 704.503 1081.13 718.07C1071.51 731.39 1061.64 744.587 1051.53 757.66C1041.66 770.733 1031.43 782.573 1020.82 793.18C1010.21 803.787 999.237 812.297 987.89 818.71C976.543 825.123 964.58 828.33 952 828.33ZM1082.98 747.3C1068.43 747.3 1057.08 745.327 1048.94 741.38C1040.8 737.433 1036.73 732.13 1036.73 725.47C1036.73 722.017 1037.84 719.303 1040.06 717.33C1042.28 715.11 1044.75 713.63 1047.46 712.89C1050.42 711.903 1052.76 711.41 1054.49 711.41C1055.97 711.41 1056.71 711.903 1056.71 712.89C1056.71 713.63 1056.09 714.123 1054.86 714.37C1051.65 714.863 1048.69 716.467 1045.98 719.18C1043.51 721.647 1042.28 723.99 1042.28 726.21C1042.28 729.417 1045.36 733.117 1051.53 737.31C1057.94 741.503 1067.81 743.6 1081.13 743.6C1087.79 743.6 1095.44 742.12 1104.07 739.16C1112.7 735.953 1120.97 731.267 1128.86 725.1C1137 718.687 1143.66 710.917 1148.84 701.79C1154.02 692.417 1156.61 681.563 1156.61 669.23C1156.61 655.417 1150.44 645.673 1138.11 640C1126.02 634.08 1109.37 631.12 1088.16 631.12C1070.65 631.12 1054 633.71 1038.21 638.89C1022.42 644.07 1008.36 650.73 996.03 658.87C983.943 667.01 974.323 675.767 967.17 685.14C960.263 694.513 956.81 703.393 956.81 711.78C956.81 720.167 958.783 726.21 962.73 729.91C966.923 733.61 971.857 735.46 977.53 735.46C984.437 735.46 991.343 733.363 998.25 729.17C1005.4 724.73 1012.06 719.18 1018.23 712.52C1024.4 705.613 1029.95 698.46 1034.88 691.06C1039.81 683.413 1043.76 676.383 1046.72 669.97C1049.68 663.557 1051.28 658.623 1051.53 655.17C1051.78 652.703 1052.27 651.47 1053.01 651.47C1054 651.47 1054.61 652.333 1054.86 654.06C1055.6 661.707 1054.24 670.463 1050.79 680.33C1047.58 689.95 1042.53 699.323 1035.62 708.45C1028.96 717.33 1020.7 724.73 1010.83 730.65C1000.96 736.57 989.987 739.53 977.9 739.53C970.253 739.53 964.087 737.187 959.4 732.5C954.713 727.567 952.37 720.537 952.37 711.41C952.37 702.53 955.947 693.28 963.1 683.66C970.253 673.793 980.12 664.667 992.7 656.28C1005.28 647.893 1019.71 641.11 1035.99 635.93C1052.52 630.503 1069.91 627.79 1088.16 627.79C1109.62 627.79 1126.52 630.257 1138.85 635.19C1151.43 640.123 1160.31 646.66 1165.49 654.8C1170.92 662.693 1173.63 671.08 1173.63 679.96C1173.63 686.867 1171.29 694.267 1166.6 702.16C1162.16 710.053 1155.87 717.453 1147.73 724.36C1139.59 731.02 1129.97 736.57 1118.87 741.01C1108.02 745.203 1096.05 747.3 1082.98 747.3ZM1259.03 600.78C1261.99 601.273 1265.07 601.643 1268.28 601.89C1271.73 601.89 1275.19 601.52 1278.64 600.78C1278.39 601.027 1276.3 603.987 1272.35 609.66C1268.4 615.087 1262.98 622.487 1256.07 631.86C1249.41 640.987 1241.89 651.347 1233.5 662.94C1225.36 674.533 1216.85 686.497 1207.97 698.83C1199.34 710.917 1190.83 722.757 1182.44 734.35C1174.3 745.697 1166.78 756.057 1159.87 765.43C1153.21 774.803 1147.91 782.327 1143.96 788C1140.01 793.673 1137.92 796.633 1137.67 796.88C1137.67 796.88 1137.79 797.127 1138.04 797.62C1138.29 797.867 1138.41 798.113 1138.41 798.36C1144.58 791.7 1151.24 784.423 1158.39 776.53C1165.54 768.637 1172.82 761.237 1180.22 754.33C1187.62 747.177 1194.9 741.38 1202.05 736.94C1209.45 732.5 1216.23 730.28 1222.4 730.28C1230.29 730.28 1235.35 732.13 1237.57 735.83C1240.04 739.283 1241.27 742.367 1241.27 745.08C1241.27 750.26 1239.54 755.933 1236.09 762.1C1232.64 768.267 1228.32 774.433 1223.14 780.6C1218.21 786.767 1213.15 792.563 1207.97 797.99C1203.04 803.17 1198.84 807.733 1195.39 811.68C1191.94 815.627 1190.21 818.463 1190.21 820.19C1190.21 822.163 1191.69 823.397 1194.65 823.89C1197.86 824.137 1200.45 824.26 1202.42 824.26C1208.09 824.26 1214.26 822.163 1220.92 817.97C1227.58 813.777 1234.12 808.597 1240.53 802.43C1246.94 796.263 1252.74 790.22 1257.92 784.3C1263.1 778.38 1267.05 773.693 1269.76 770.24L1272.72 772.46C1270.25 775.42 1266.55 779.983 1261.62 786.15C1256.69 792.07 1250.77 798.36 1243.86 805.02C1237.2 811.433 1229.92 816.983 1222.03 821.67C1214.14 826.11 1205.87 828.33 1197.24 828.33C1194.03 828.33 1190.33 827.467 1186.14 825.74C1181.95 824.26 1179.85 820.93 1179.85 815.75C1179.85 811.557 1181.45 806.747 1184.66 801.32C1188.11 795.647 1192.31 789.85 1197.24 783.93C1202.17 777.763 1207.11 771.843 1212.04 766.17C1217.22 760.497 1221.41 755.317 1224.62 750.63C1228.07 745.697 1229.8 741.75 1229.8 738.79C1229.8 735.583 1227.46 733.98 1222.77 733.98C1216.85 733.98 1209.7 736.817 1201.31 742.49C1193.17 747.917 1184.54 755.193 1175.41 764.32C1166.28 773.447 1157.16 783.313 1148.03 793.92C1139.15 804.527 1130.89 815.01 1123.24 825.37C1120.03 824.877 1116.46 824.63 1112.51 824.63C1108.56 824.63 1104.86 825.123 1101.41 826.11C1101.41 826.11 1103.63 823.027 1108.07 816.86C1112.51 810.447 1118.55 801.937 1126.2 791.33C1133.6 780.477 1141.99 768.39 1151.36 755.07C1160.73 741.503 1170.35 727.69 1180.22 713.63C1190.09 699.323 1199.71 685.51 1209.08 672.19C1218.45 658.623 1226.84 646.537 1234.24 635.93C1241.89 625.077 1247.93 616.567 1252.37 610.4C1256.81 603.987 1259.03 600.78 1259.03 600.78ZM1332.89 730.65C1345.23 730.65 1351.39 736.57 1351.39 748.41C1351.39 757.537 1349.3 766.91 1345.1 776.53C1340.91 785.903 1335.24 794.537 1328.08 802.43C1320.93 810.077 1313.16 816.367 1304.77 821.3C1296.39 825.987 1287.88 828.33 1279.24 828.33C1272.58 828.33 1267.03 826.727 1262.59 823.52C1257.91 820.067 1255.56 814.517 1255.56 806.87C1255.56 799.717 1257.66 791.823 1261.85 783.19C1266.05 774.31 1271.72 765.923 1278.87 758.03C1286.27 750.137 1294.54 743.6 1303.66 738.42C1313.04 733.24 1322.78 730.65 1332.89 730.65ZM1336.96 735.83C1332.77 735.83 1327.84 737.68 1322.16 741.38C1316.49 745.08 1310.69 749.89 1304.77 755.81C1298.85 761.73 1293.3 768.143 1288.12 775.05C1283.19 781.71 1279.12 788.247 1275.91 794.66C1272.95 801.073 1271.47 806.5 1271.47 810.94C1271.47 815.873 1272.83 819.327 1275.54 821.3C1278.26 823.027 1281.34 823.89 1284.79 823.89C1290.47 823.89 1296.88 821.547 1304.03 816.86C1311.19 811.927 1318.09 805.76 1324.75 798.36C1331.41 790.96 1336.84 783.19 1341.03 775.05C1345.47 766.663 1347.69 759.017 1347.69 752.11C1347.69 745.697 1346.58 741.38 1344.36 739.16C1342.14 736.94 1339.68 735.83 1336.96 735.83ZM1343.62 773.94C1344.86 773.94 1345.35 774.433 1345.1 775.42C1345.1 776.16 1344.49 776.53 1343.25 776.53C1342.27 776.53 1340.79 777.887 1338.81 780.6C1337.09 783.067 1335.48 785.657 1334 788.37C1332.52 791.083 1331.78 792.563 1331.78 792.81C1331.78 798.483 1333.88 801.32 1338.07 801.32C1342.02 801.32 1346.46 799.47 1351.39 795.77C1356.57 792.07 1361.51 787.877 1366.19 783.19C1371.13 778.257 1375.07 773.94 1378.03 770.24L1380.99 772.83C1377.79 776.53 1373.72 780.97 1368.78 786.15C1363.85 791.083 1358.67 795.523 1353.24 799.47C1347.82 803.17 1342.76 805.02 1338.07 805.02C1334.13 805.02 1331.41 804.157 1329.93 802.43C1328.45 800.703 1327.71 797.62 1327.71 793.18C1327.71 787.26 1329.69 782.573 1333.63 779.12C1337.83 775.667 1341.16 773.94 1343.62 773.94ZM1452.01 665.16C1454.23 666.147 1457.44 666.64 1461.63 666.64C1466.07 666.393 1469.53 666.023 1471.99 665.53C1464.1 676.383 1455.34 688.347 1445.72 701.42C1436.1 714.493 1426.36 727.567 1416.49 740.64C1406.87 753.467 1397.87 765.553 1389.48 776.9C1381.34 788 1374.81 797.373 1369.87 805.02C1364.94 812.667 1362.47 817.477 1362.47 819.45C1362.47 820.93 1363.34 822.04 1365.06 822.78C1366.54 823.52 1368.52 823.89 1370.98 823.89C1376.41 823.89 1382.33 822.04 1388.74 818.34C1395.4 814.393 1401.94 809.583 1408.35 803.91C1415.01 797.99 1421.06 792.07 1426.48 786.15C1432.16 779.983 1436.6 774.68 1439.8 770.24L1442.76 772.46C1439.31 776.9 1434.75 782.203 1429.07 788.37C1423.4 794.537 1417.11 800.703 1410.2 806.87C1403.3 813.037 1396.14 818.217 1388.74 822.41C1381.59 826.357 1374.68 828.33 1368.02 828.33C1363.34 828.33 1359.64 827.343 1356.92 825.37C1353.96 823.643 1352.48 820.56 1352.48 816.12C1352.48 812.173 1354.83 806.13 1359.51 797.99C1364.2 789.603 1370.24 779.983 1377.64 769.13C1385.29 758.277 1393.55 746.807 1402.43 734.72C1411.31 722.387 1420.07 710.3 1428.7 698.46C1437.58 686.373 1445.35 675.273 1452.01 665.16ZM1411.31 706.6C1408.85 706.6 1407.61 705.86 1407.61 704.38C1407.61 703.147 1408.85 702.53 1411.31 702.53H1481.61C1482.35 702.53 1483.09 702.653 1483.83 702.9C1484.82 703.147 1485.31 703.64 1485.31 704.38C1485.31 705.367 1484.82 705.983 1483.83 706.23C1483.09 706.477 1482.35 706.6 1481.61 706.6H1411.31ZM1503.08 730.65C1515.41 730.65 1521.58 736.57 1521.58 748.41C1521.58 757.537 1519.48 766.91 1515.29 776.53C1511.1 785.903 1505.42 794.537 1498.27 802.43C1491.12 810.077 1483.35 816.367 1474.96 821.3C1466.57 825.987 1458.06 828.33 1449.43 828.33C1442.77 828.33 1437.22 826.727 1432.78 823.52C1428.09 820.067 1425.75 814.517 1425.75 806.87C1425.75 799.717 1427.85 791.823 1432.04 783.19C1436.23 774.31 1441.91 765.923 1449.06 758.03C1456.46 750.137 1464.72 743.6 1473.85 738.42C1483.22 733.24 1492.97 730.65 1503.08 730.65ZM1507.15 735.83C1502.96 735.83 1498.02 737.68 1492.35 741.38C1486.68 745.08 1480.88 749.89 1474.96 755.81C1469.04 761.73 1463.49 768.143 1458.31 775.05C1453.38 781.71 1449.31 788.247 1446.1 794.66C1443.14 801.073 1441.66 806.5 1441.66 810.94C1441.66 815.873 1443.02 819.327 1445.73 821.3C1448.44 823.027 1451.53 823.89 1454.98 823.89C1460.65 823.89 1467.07 821.547 1474.22 816.86C1481.37 811.927 1488.28 805.76 1494.94 798.36C1501.6 790.96 1507.03 783.19 1511.22 775.05C1515.66 766.663 1517.88 759.017 1517.88 752.11C1517.88 745.697 1516.77 741.38 1514.55 739.16C1512.33 736.94 1509.86 735.83 1507.15 735.83ZM1513.81 773.94C1515.04 773.94 1515.54 774.433 1515.29 775.42C1515.29 776.16 1514.67 776.53 1513.44 776.53C1512.45 776.53 1510.97 777.887 1509 780.6C1507.27 783.067 1505.67 785.657 1504.19 788.37C1502.71 791.083 1501.97 792.563 1501.97 792.81C1501.97 798.483 1504.07 801.32 1508.26 801.32C1512.21 801.32 1516.65 799.47 1521.58 795.77C1526.76 792.07 1531.69 787.877 1536.38 783.19C1541.31 778.257 1545.26 773.94 1548.22 770.24L1551.18 772.83C1547.97 776.53 1543.9 780.97 1538.97 786.15C1534.04 791.083 1528.86 795.523 1523.43 799.47C1518 803.17 1512.95 805.02 1508.26 805.02C1504.31 805.02 1501.6 804.157 1500.12 802.43C1498.64 800.703 1497.9 797.62 1497.9 793.18C1497.9 787.26 1499.87 782.573 1503.82 779.12C1508.01 775.667 1511.34 773.94 1513.81 773.94ZM1617.39 730.65C1624.79 730.65 1629.85 731.76 1632.56 733.98C1635.52 736.2 1637 739.16 1637 742.86C1637 746.313 1636.14 749.89 1634.41 753.59C1632.68 757.043 1630.83 760.25 1628.86 763.21C1627.13 766.17 1626.02 768.143 1625.53 769.13C1624.05 771.597 1622.32 773.2 1620.35 773.94C1618.38 774.433 1618.99 772.46 1622.2 768.02C1626.39 762.593 1629.48 757.413 1631.45 752.48C1633.42 747.3 1633.55 743.107 1631.82 739.9C1630.34 736.447 1626.15 734.72 1619.24 734.72C1614.55 734.72 1609 736.817 1602.59 741.01C1596.42 744.957 1590.01 750.26 1583.35 756.92C1576.69 763.333 1570.4 770.363 1564.48 778.01C1558.81 785.41 1554.12 792.563 1550.42 799.47C1546.97 806.13 1545.24 811.803 1545.24 816.49C1545.24 819.943 1545.98 822.04 1547.46 822.78C1548.94 823.52 1550.79 823.89 1553.01 823.89C1558.68 823.89 1565.22 821.423 1572.62 816.49C1580.02 811.31 1587.67 804.773 1595.56 796.88C1603.45 788.987 1610.98 780.847 1618.13 772.46C1625.53 763.827 1631.94 756.057 1637.37 749.15C1642.8 741.997 1646.62 736.817 1648.84 733.61C1651.55 734.35 1654.27 734.843 1656.98 735.09C1659.94 735.09 1663.76 734.72 1668.45 733.98C1652.17 752.727 1637 771.843 1622.94 791.33C1608.88 810.817 1595.44 829.44 1582.61 847.2C1569.78 864.96 1557.2 880.747 1544.87 894.56C1532.29 908.62 1519.59 919.72 1506.76 927.86C1493.93 936 1480.49 940.07 1466.43 940.07C1461.74 940.07 1458.04 939.083 1455.33 937.11C1452.37 935.137 1450.89 932.547 1450.89 929.34C1450.89 923.913 1453.73 918.24 1459.4 912.32C1465.07 906.647 1472.47 901.097 1481.6 895.67C1490.73 890.243 1500.59 884.94 1511.2 879.76C1521.56 874.827 1531.67 870.387 1541.54 866.44C1551.16 862.493 1559.3 859.163 1565.96 856.45C1577.55 851.763 1589.15 845.843 1600.74 838.69C1612.33 831.537 1623.19 823.767 1633.3 815.38C1643.66 806.993 1652.79 798.853 1660.68 790.96C1668.82 783.067 1675.11 776.037 1679.55 769.87C1679.55 769.87 1679.92 770.363 1680.66 771.35C1681.65 772.337 1682.14 772.83 1682.14 772.83C1675.97 780.97 1667.46 790.343 1656.61 800.95C1645.76 811.31 1632.81 821.67 1617.76 832.03C1602.71 842.39 1585.82 851.517 1567.07 859.41C1560.66 862.123 1552.76 865.453 1543.39 869.4C1534.02 873.347 1524.27 877.663 1514.16 882.35C1504.05 887.283 1494.55 892.34 1485.67 897.52C1476.79 902.947 1469.64 908.25 1464.21 913.43C1458.54 918.857 1455.7 924.037 1455.7 928.97C1455.7 930.697 1456.56 932.423 1458.29 934.15C1460.02 935.877 1462.73 936.74 1466.43 936.74C1473.34 936.74 1480.98 933.78 1489.37 927.86C1497.76 921.94 1506.64 914.17 1516.01 904.55C1525.14 894.93 1534.39 884.447 1543.76 873.1C1552.89 862 1561.64 850.9 1570.03 839.8C1578.42 828.7 1585.94 818.71 1592.6 809.83C1599.51 800.95 1605.06 794.29 1609.25 789.85C1609.25 789.85 1609 789.727 1608.51 789.48C1608.26 789.233 1608.14 789.11 1608.14 789.11C1607.15 790.343 1604.69 793.057 1600.74 797.25C1597.04 801.197 1592.35 805.637 1586.68 810.57C1581.01 815.257 1574.96 819.45 1568.55 823.15C1562.14 826.603 1555.85 828.33 1549.68 828.33C1543.27 828.33 1538.95 826.48 1536.73 822.78C1534.26 819.08 1533.03 814.887 1533.03 810.2C1533.03 802.307 1535.25 793.797 1539.69 784.67C1543.88 775.543 1549.8 766.91 1557.45 758.77C1565.34 750.63 1574.35 743.97 1584.46 738.79C1594.82 733.363 1605.8 730.65 1617.39 730.65ZM1678.27 776.53C1677.28 777.517 1676.54 777.64 1676.05 776.9C1675.56 775.913 1675.43 774.927 1675.68 773.94C1679.87 769.747 1683.94 764.813 1687.89 759.14C1692.08 753.467 1695.54 748.163 1698.25 743.23C1701.21 738.297 1702.94 734.967 1703.43 733.24C1703.92 733.24 1704.66 732.87 1705.65 732.13C1706.88 731.39 1707.99 731.143 1708.98 731.39C1708.73 733.117 1708.36 734.72 1707.87 736.2C1707.62 737.68 1708.49 739.037 1710.46 740.27C1712.43 741.503 1716.5 742.737 1722.67 743.97C1728.84 745.203 1738.21 746.56 1750.79 748.04C1752.02 748.287 1752.89 748.78 1753.38 749.52C1754.12 750.013 1753.75 750.877 1752.27 752.11C1747.58 755.81 1742.4 760.497 1736.73 766.17C1731.06 771.843 1725.51 777.887 1720.08 784.3C1714.9 790.467 1710.58 796.51 1707.13 802.43C1703.92 808.35 1702.32 813.283 1702.32 817.23C1702.32 821.67 1704.29 823.89 1708.24 823.89C1713.17 823.89 1718.72 821.917 1724.89 817.97C1731.3 814.023 1737.72 809.213 1744.13 803.54C1750.54 797.62 1756.46 791.7 1761.89 785.78C1767.56 779.613 1772.25 774.557 1775.95 770.61L1778.91 772.83C1775.46 776.283 1771.02 781.093 1765.59 787.26C1760.16 793.427 1754 799.717 1747.09 806.13C1740.43 812.297 1733.28 817.6 1725.63 822.04C1717.98 826.233 1710.09 828.33 1701.95 828.33C1697.26 828.33 1693.07 827.22 1689.37 825C1685.67 823.027 1683.82 819.327 1683.82 813.9C1683.82 808.72 1686.04 803.293 1690.48 797.62C1694.92 791.947 1700.47 786.273 1707.13 780.6C1713.79 774.68 1720.7 769.13 1727.85 763.95C1735.25 758.523 1741.79 753.59 1747.46 749.15L1750.05 752.48C1747.58 751.493 1743.27 750.63 1737.1 749.89C1730.93 748.903 1724.52 747.67 1717.86 746.19C1711.2 744.463 1705.4 742.243 1700.47 739.53C1695.78 736.817 1693.44 733.117 1693.44 728.43C1693.44 725.963 1694.43 723.003 1696.4 719.55C1698.62 715.85 1701.58 714 1705.28 714C1708.73 714 1711.08 714.74 1712.31 716.22C1713.54 717.453 1714.16 719.18 1714.16 721.4C1714.16 722.88 1712.93 725.963 1710.46 730.65C1707.99 735.09 1704.91 740.393 1701.21 746.56C1697.51 752.48 1693.56 758.153 1689.37 763.58C1685.42 769.007 1681.72 773.323 1678.27 776.53ZM1856.13 760.25C1855.14 762.223 1853.66 763.95 1851.69 765.43C1849.96 766.91 1848.6 767.897 1847.62 768.39C1846.88 768.637 1847.12 767.897 1848.36 766.17C1852.8 760.743 1855.63 755.687 1856.87 751C1858.35 746.313 1858.35 742.613 1856.87 739.9C1855.63 736.94 1853.17 735.46 1849.47 735.46C1844.53 735.46 1838.74 737.433 1832.08 741.38C1825.42 745.327 1818.51 750.507 1811.36 756.92C1804.45 763.333 1797.91 770.24 1791.75 777.64C1785.83 784.793 1781.02 791.823 1777.32 798.73C1773.62 805.39 1771.77 811.187 1771.77 816.12C1771.77 819.82 1772.51 822.163 1773.99 823.15C1775.47 824.137 1776.95 824.63 1778.43 824.63C1784.1 824.63 1790.64 822.04 1798.04 816.86C1805.68 811.433 1813.45 804.65 1821.35 796.51C1829.24 788.37 1836.76 780.107 1843.92 771.72C1851.07 763.087 1857.24 755.317 1862.42 748.41C1867.84 741.503 1871.54 736.817 1873.52 734.35C1876.23 735.337 1879.44 735.707 1883.14 735.46C1887.08 735.213 1890.41 734.967 1893.13 734.72C1892.63 735.46 1890.04 738.543 1885.36 743.97C1880.92 749.397 1875.49 755.933 1869.08 763.58C1862.91 770.98 1856.62 778.627 1850.21 786.52C1844.04 794.413 1838.86 801.32 1834.67 807.24C1830.47 813.16 1828.38 817.107 1828.38 819.08C1828.38 821.547 1828.87 823.15 1829.86 823.89C1831.09 824.383 1832.94 824.63 1835.41 824.63C1838.37 824.383 1842.68 823.027 1848.36 820.56C1854.03 817.847 1861.31 812.667 1870.19 805.02C1879.07 797.373 1889.8 786.027 1902.38 770.98C1902.38 770.98 1902.87 771.35 1903.86 772.09C1905.09 772.83 1905.71 773.2 1905.71 773.2C1890.91 790.467 1877.22 804.033 1864.64 813.9C1852.06 823.52 1840.59 828.33 1830.23 828.33C1824.8 828.33 1821.1 827.467 1819.13 825.74C1817.4 824.013 1816.54 821.547 1816.54 818.34C1816.54 815.873 1817.52 812.913 1819.5 809.46C1821.72 805.76 1824.18 802.183 1826.9 798.73C1829.61 795.277 1831.83 792.563 1833.56 790.59C1833.56 790.59 1833.31 790.467 1832.82 790.22C1832.32 789.973 1832.08 789.85 1832.08 789.85C1826.4 796.757 1820.36 803.17 1813.95 809.09C1807.53 815.01 1801.12 819.697 1794.71 823.15C1788.54 826.603 1782.5 828.33 1776.58 828.33C1770.41 828.33 1766.09 826.85 1763.63 823.89C1761.16 820.683 1759.93 815.873 1759.93 809.46C1759.93 803.293 1761.9 795.893 1765.85 787.26C1769.79 778.38 1775.47 769.747 1782.87 761.36C1790.27 752.727 1799.15 745.573 1809.51 739.9C1820.11 734.227 1831.95 731.39 1845.03 731.39C1851.44 731.39 1855.88 732.623 1858.35 735.09C1860.81 737.31 1861.92 740.023 1861.68 743.23C1861.43 746.437 1860.69 749.643 1859.46 752.85C1858.22 756.057 1857.11 758.523 1856.13 760.25ZM1962.97 689.21C1965.93 689.703 1969.51 689.95 1973.7 689.95C1978.14 689.95 1981.84 689.58 1984.8 688.84C1983.32 690.813 1980.98 693.773 1977.77 697.72C1974.81 701.42 1971.24 705.86 1967.04 711.04C1962.85 715.973 1958.41 721.277 1953.72 726.95C1949.28 732.623 1944.6 738.543 1939.66 744.71C1934.98 750.63 1930.41 756.427 1925.97 762.1C1921.53 767.527 1917.46 772.707 1913.76 777.64C1910.31 782.573 1907.35 786.767 1904.88 790.22L1905.99 791.33C1912.16 785.903 1917.96 780.6 1923.38 775.42C1929.06 770.24 1934.48 765.43 1939.66 760.99C1944.84 756.55 1949.9 752.48 1954.83 748.78C1959.77 745.08 1964.58 741.873 1969.26 739.16C1973.95 736.447 1978.39 734.35 1982.58 732.87C1987.02 731.39 1991.34 730.65 1995.53 730.65C2001.95 730.65 2006.02 731.76 2007.74 733.98C2009.47 736.2 2010.33 739.037 2010.33 742.49C2010.33 749.397 2008.11 756.057 2003.67 762.47C1999.23 768.637 1993.81 774.557 1987.39 780.23C1980.98 785.903 1974.44 791.083 1967.78 795.77C1961.37 800.457 1955.94 804.773 1951.5 808.72C1947.06 812.42 1944.84 815.503 1944.84 817.97C1944.84 820.437 1945.71 822.163 1947.43 823.15C1949.16 824.137 1951.26 824.63 1953.72 824.63C1961.37 824.63 1969.39 821.793 1977.77 816.12C1986.16 810.447 1994.42 803.54 2002.56 795.4C2010.7 787.013 2018.1 778.75 2024.76 770.61L2028.09 772.83C2021.19 780.723 2013.54 788.987 2005.15 797.62C1997.01 806.253 1988.5 813.53 1979.62 819.45C1970.99 825.37 1962.48 828.33 1954.09 828.33C1947.19 828.33 1942.62 826.85 1940.4 823.89C1938.43 820.683 1937.44 817.723 1937.44 815.01C1937.44 808.103 1939.66 801.567 1944.1 795.4C1948.54 789.233 1953.97 783.437 1960.38 778.01C1966.8 772.583 1973.21 767.527 1979.62 762.84C1986.04 758.153 1991.46 753.837 1995.9 749.89C2000.34 745.943 2002.56 742.367 2002.56 739.16C2002.56 737.68 2002.07 736.57 2001.08 735.83C2000.1 734.843 1998.25 734.35 1995.53 734.35C1989.61 734.35 1982.83 736.447 1975.18 740.64C1967.54 744.587 1959.52 749.767 1951.13 756.18C1942.99 762.593 1934.85 769.5 1926.71 776.9C1918.82 784.3 1911.42 791.577 1904.51 798.73C1897.85 805.883 1892.3 812.05 1887.86 817.23C1883.18 822.41 1879.97 825.863 1878.24 827.59C1877.01 829.07 1874.54 832.4 1870.84 837.58C1867.14 842.76 1862.95 848.927 1858.26 856.08C1853.33 863.48 1848.27 871.127 1843.09 879.02C1837.91 886.913 1833.1 894.313 1828.66 901.22C1823.98 908.373 1820.28 914.293 1817.56 918.98C1814.6 923.667 1812.88 926.503 1812.38 927.49C1811.4 928.23 1809.18 928.723 1805.72 928.97C1802.27 929.217 1798.94 929.217 1795.73 928.97C1792.28 928.723 1789.94 928.23 1788.7 927.49C1788.95 926.997 1791.54 923.42 1796.47 916.76C1801.41 910.347 1807.82 901.59 1815.71 890.49C1823.61 879.637 1832.61 867.303 1842.72 853.49C1852.59 839.923 1862.83 825.863 1873.43 811.31C1884.04 796.757 1894.4 782.573 1904.51 768.76C1914.63 754.7 1923.88 741.997 1932.26 730.65C1940.9 719.057 1947.93 709.683 1953.35 702.53C1958.78 695.13 1961.99 690.69 1962.97 689.21ZM2190.78 731.02C2194.23 732.007 2197.81 732.5 2201.51 732.5C2205.21 732.253 2209.03 732.007 2212.98 731.76C2206.32 738.173 2198.79 745.82 2190.41 754.7C2182.27 763.333 2174.37 772.09 2166.73 780.97C2159.33 789.603 2153.16 797.373 2148.23 804.28C2143.29 810.94 2140.83 815.503 2140.83 817.97C2140.83 819.697 2141.44 821.3 2142.68 822.78C2143.91 824.013 2146.01 824.63 2148.97 824.63C2157.6 824.63 2166.48 822.04 2175.61 816.86C2184.98 811.68 2193.98 805.143 2202.62 797.25C2211.5 789.11 2219.76 780.723 2227.41 772.09C2235.05 763.21 2241.71 755.193 2247.39 748.04C2253.31 740.64 2257.62 735.213 2260.34 731.76C2262.31 732.253 2265.52 732.5 2269.96 732.5C2274.64 732.5 2277.85 732.377 2279.58 732.13C2254.17 762.717 2231.85 790.837 2212.61 816.49C2193.61 841.897 2176.47 863.727 2161.18 881.98C2145.88 900.48 2131.33 914.787 2117.52 924.9C2103.46 935.013 2088.78 940.07 2073.49 940.07C2064.11 940.07 2059.43 936.37 2059.43 928.97C2059.43 923.543 2062.88 917.87 2069.79 911.95C2076.45 906.03 2085.45 899.863 2096.8 893.45C2108.14 887.283 2120.72 881.117 2134.54 874.95C2148.35 868.783 2162.41 862.863 2176.72 857.19C2195.46 849.79 2210.88 841.65 2222.97 832.77C2235.3 824.137 2246.03 814.64 2255.16 804.28C2264.53 793.92 2274.03 782.573 2283.65 770.24L2286.61 772.09C2276.74 784.67 2267 796.263 2257.38 806.87C2247.76 817.23 2236.78 826.85 2224.45 835.73C2212.11 844.61 2196.57 852.873 2177.83 860.52C2163.77 866.193 2150.08 871.99 2136.76 877.91C2123.19 884.077 2110.98 889.997 2100.13 895.67C2089.03 901.59 2080.27 907.387 2073.86 913.06C2067.2 918.733 2063.87 924.037 2063.87 928.97C2063.87 931.93 2064.85 933.78 2066.83 934.52C2068.8 935.507 2071.39 936 2074.6 936C2082.24 936 2090.51 933.04 2099.39 927.12C2108.02 921.2 2117.15 913.183 2126.77 903.07C2136.39 892.957 2146.13 881.487 2156 868.66C2166.11 856.08 2176.35 843.007 2186.71 829.44C2197.07 815.873 2207.55 802.677 2218.16 789.85L2216.68 789.11C2216.18 789.85 2214.46 791.7 2211.5 794.66C2208.54 797.62 2204.71 800.95 2200.03 804.65C2195.34 808.35 2190.04 812.05 2184.12 815.75C2178.2 819.45 2171.91 822.533 2165.25 825C2158.83 827.22 2152.3 828.33 2145.64 828.33C2140.95 828.33 2137.37 827.22 2134.91 825C2132.19 823.027 2130.84 820.19 2130.84 816.49C2130.84 810.57 2132.81 803.91 2136.76 796.51C2140.7 788.863 2145.88 781.093 2152.3 773.2C2158.46 765.307 2165 757.66 2171.91 750.26C2178.81 742.86 2185.1 736.447 2190.78 731.02Z" fill="#4B2A4A"/>
<path d="M2143.92 600.78C2146.88 601.273 2149.97 601.643 2153.17 601.89C2156.63 601.89 2160.08 601.52 2163.53 600.78C2163.29 601.027 2161.19 603.987 2157.24 609.66C2153.3 615.087 2147.87 622.487 2140.96 631.86C2134.3 640.987 2126.78 651.347 2118.39 662.94C2110.25 674.533 2101.74 686.497 2092.86 698.83C2084.23 710.917 2075.72 722.757 2067.33 734.35C2059.19 745.697 2051.67 756.057 2044.76 765.43C2038.1 774.803 2032.8 782.327 2028.85 788C2024.91 793.673 2022.81 796.633 2022.56 796.88C2022.56 796.88 2022.69 797.127 2022.93 797.62C2023.18 797.867 2023.3 798.113 2023.3 798.36C2029.47 791.7 2036.13 784.423 2043.28 776.53C2050.44 768.637 2057.71 761.237 2065.11 754.33C2072.51 747.177 2079.79 741.38 2086.94 736.94C2094.34 732.5 2101.13 730.28 2107.29 730.28C2115.19 730.28 2120.24 732.13 2122.46 735.83C2124.93 739.283 2126.16 742.367 2126.16 745.08C2126.16 750.26 2124.44 755.933 2120.98 762.1C2117.53 768.267 2113.21 774.433 2108.03 780.6C2103.1 786.767 2098.04 792.563 2092.86 797.99C2087.93 803.17 2083.74 807.733 2080.28 811.68C2076.83 815.627 2075.1 818.463 2075.1 820.19C2075.1 822.163 2076.58 823.397 2079.54 823.89C2082.75 824.137 2085.34 824.26 2087.31 824.26C2092.99 824.26 2099.15 822.163 2105.81 817.97C2112.47 813.777 2119.01 808.597 2125.42 802.43C2131.84 796.263 2137.63 790.22 2142.81 784.3C2147.99 778.38 2151.94 773.693 2154.65 770.24L2157.61 772.46C2155.15 775.42 2151.45 779.983 2146.51 786.15C2141.58 792.07 2135.66 798.36 2128.75 805.02C2122.09 811.433 2114.82 816.983 2106.92 821.67C2099.03 826.11 2090.77 828.33 2082.13 828.33C2078.93 828.33 2075.23 827.467 2071.03 825.74C2066.84 824.26 2064.74 820.93 2064.74 815.75C2064.74 811.557 2066.35 806.747 2069.55 801.32C2073.01 795.647 2077.2 789.85 2082.13 783.93C2087.07 777.763 2092 771.843 2096.93 766.17C2102.11 760.497 2106.31 755.317 2109.51 750.63C2112.97 745.697 2114.69 741.75 2114.69 738.79C2114.69 735.583 2112.35 733.98 2107.66 733.98C2101.74 733.98 2094.59 736.817 2086.2 742.49C2078.06 747.917 2069.43 755.193 2060.3 764.32C2051.18 773.447 2042.05 783.313 2032.92 793.92C2024.04 804.527 2015.78 815.01 2008.13 825.37C2004.93 824.877 2001.35 824.63 1997.4 824.63C1993.46 824.63 1989.76 825.123 1986.3 826.11C1986.3 826.11 1988.52 823.027 1992.96 816.86C1997.4 810.447 2003.45 801.937 2011.09 791.33C2018.49 780.477 2026.88 768.39 2036.25 755.07C2045.63 741.503 2055.25 727.69 2065.11 713.63C2074.98 699.323 2084.6 685.51 2093.97 672.19C2103.35 658.623 2111.73 646.537 2119.13 635.93C2126.78 625.077 2132.82 616.567 2137.26 610.4C2141.7 603.987 2143.92 600.78 2143.92 600.78Z" fill="url(#paint2_linear_678_297)"/>
</g>
<path d="M1190.72 197.12C1190.72 196.48 1190.68 195.28 1190.6 193.52C1190.6 191.76 1190.56 190.04 1190.48 188.36C1190.4 186.68 1190.24 185.64 1190 185.24C1189.52 184.44 1188.92 183.92 1188.2 183.68C1187.56 183.36 1186.8 183.2 1185.92 183.2H1162.64C1161.68 191.92 1160.76 200.72 1159.88 209.6C1159 218.48 1157.76 227.28 1156.16 236C1154.56 244.72 1152.2 253.24 1149.08 261.56H1168.4C1172.08 261.56 1175.76 261.56 1179.44 261.56C1183.12 261.48 1186.8 261.44 1190.48 261.44C1190.56 257.92 1190.6 254.44 1190.6 251C1190.68 247.48 1190.72 243.96 1190.72 240.44V197.12ZM1218.2 276.56C1218.2 277.28 1218.08 278 1217.84 278.72C1217.68 279.52 1217.16 279.92 1216.28 279.92C1215.72 279.92 1215.24 279.72 1214.84 279.32C1214.44 279 1214.12 278.6 1213.88 278.12C1212.92 276.52 1212.04 275.08 1211.24 273.8C1210.44 272.52 1209.28 271.28 1207.76 270.08C1206.56 269.04 1204.96 268.2 1202.96 267.56C1201.04 267 1199.08 266.56 1197.08 266.24C1195.08 265.92 1193.28 265.76 1191.68 265.76H1157.6C1154.96 265.76 1151.88 265.84 1148.36 266C1144.84 266.24 1141.44 266.84 1138.16 267.8C1134.88 268.76 1132.32 270.28 1130.48 272.36C1129.52 273.4 1128.76 274.52 1128.2 275.72C1127.72 277 1127.04 278.16 1126.16 279.2C1125.84 279.6 1125.48 279.8 1125.08 279.8C1124.52 279.8 1124.12 279.72 1123.88 279.56C1123.72 279.4 1123.64 279 1123.64 278.36C1123.64 276.04 1123.84 273.6 1124.24 271.04C1124.72 268.56 1125.24 266.2 1125.8 263.96C1126.04 263 1126.36 262.28 1126.76 261.8C1127.24 261.24 1128.04 260.96 1129.16 260.96C1131.72 260.96 1134.32 260.4 1136.96 259.28C1139.6 258.16 1141.4 256.28 1142.36 253.64C1146.04 243.16 1148.8 232.16 1150.64 220.64C1152.56 209.04 1153.52 197.72 1153.52 186.68C1153.52 186.04 1153.44 185.44 1153.28 184.88C1153.12 184.32 1152.72 183.88 1152.08 183.56C1152 183.48 1151.56 183.44 1150.76 183.44C1150.04 183.36 1149.28 183.32 1148.48 183.32C1147.76 183.24 1147.28 183.2 1147.04 183.2C1146.16 183.2 1145.28 183.28 1144.4 183.44C1143.6 183.6 1142.76 183.68 1141.88 183.68C1140.76 183.68 1140.2 183.12 1140.2 182C1140.2 181.36 1140.28 180.52 1140.44 179.48C1140.6 178.44 1141.16 177.92 1142.12 177.92C1144.36 177.92 1146.56 178 1148.72 178.16C1150.96 178.32 1153.2 178.4 1155.44 178.4H1174.88C1180.88 178.4 1186.88 178.32 1192.88 178.16C1198.88 177.92 1204.88 177.8 1210.88 177.8C1211.52 177.8 1211.92 177.96 1212.08 178.28C1212.32 178.52 1212.44 178.96 1212.44 179.6C1212.44 181.12 1212.24 182.12 1211.84 182.6C1211.52 183.08 1210.52 183.32 1208.84 183.32C1208.44 183.32 1208 183.28 1207.52 183.2C1207.12 183.12 1206.72 183.08 1206.32 183.08C1205.2 183.08 1204.32 183.24 1203.68 183.56C1203.04 183.88 1202.64 184.64 1202.48 185.84C1202.16 187.12 1202 188.44 1202 189.8C1202.08 191.08 1202.12 192.4 1202.12 193.76C1202.04 201.6 1201.92 209.44 1201.76 217.28C1201.68 225.12 1201.64 232.96 1201.64 240.8C1201.64 247.52 1201.76 254.32 1202 261.2C1204.08 261.2 1206.2 261.16 1208.36 261.08C1210.52 261 1212.68 260.96 1214.84 260.96L1216.16 261.2C1216.72 261.36 1217.08 261.72 1217.24 262.28C1217.4 262.84 1217.52 263.36 1217.6 263.84C1217.76 265.92 1217.88 268.04 1217.96 270.2C1218.12 272.36 1218.2 274.48 1218.2 276.56ZM1329.56 243.32C1329.56 244.04 1329.48 244.8 1329.32 245.6C1329.24 246.4 1329.12 247.16 1328.96 247.88C1328.72 249.48 1328.48 251.08 1328.24 252.68C1328 254.2 1327.8 255.76 1327.64 257.36C1327.56 258.56 1327.44 259.76 1327.28 260.96C1327.2 262.16 1327.04 263.32 1326.8 264.44C1326.64 265.16 1326.4 265.64 1326.08 265.88C1325.84 266.04 1325.36 266.12 1324.64 266.12C1317.44 266.12 1310.24 266.08 1303.04 266C1295.84 265.84 1288.64 265.76 1281.44 265.76C1277.36 265.76 1273.28 265.84 1269.2 266C1265.2 266.24 1261.16 266.36 1257.08 266.36C1256.52 266.36 1256.04 266.2 1255.64 265.88C1255.24 265.48 1255.04 265 1255.04 264.44C1255.04 262.92 1255.52 262.12 1256.48 262.04C1257.44 261.88 1258.44 261.8 1259.48 261.8H1263.08C1265.24 261.8 1266.72 261.28 1267.52 260.24C1268.4 259.2 1268.88 257.88 1268.96 256.28C1269.12 254.6 1269.2 252.96 1269.2 251.36C1269.2 246.16 1269.24 241.04 1269.32 236C1269.4 230.88 1269.44 225.76 1269.44 220.64V204.8C1269.44 201.92 1269.44 199.04 1269.44 196.16C1269.44 193.2 1269.36 190.28 1269.2 187.4C1269.12 186.04 1268.88 185.08 1268.48 184.52C1268.08 183.88 1267.2 183.44 1265.84 183.2C1264.56 182.96 1263.24 182.84 1261.88 182.84C1260.6 182.76 1259.32 182.72 1258.04 182.72C1257.48 182.72 1257 182.48 1256.6 182C1256.28 181.44 1256.12 180.88 1256.12 180.32C1256.12 179.84 1256.24 179.32 1256.48 178.76C1256.8 178.2 1257.24 177.92 1257.8 177.92C1259.08 177.92 1260.36 177.96 1261.64 178.04C1262.92 178.12 1264.2 178.16 1265.48 178.16H1292.6C1295.64 178.16 1298.68 178.16 1301.72 178.16C1304.76 178.08 1307.8 178 1310.84 177.92C1312.76 177.84 1314.68 177.76 1316.6 177.68C1318.6 177.52 1320.56 177.44 1322.48 177.44C1322.88 177.44 1323.08 177.64 1323.08 178.04C1323.16 178.44 1323.24 178.76 1323.32 179C1323.64 181.16 1324 183.36 1324.4 185.6C1324.8 187.76 1325.24 189.88 1325.72 191.96C1325.88 192.52 1326 193.08 1326.08 193.64C1326.24 194.2 1326.32 194.8 1326.32 195.44C1326.32 196.8 1325.6 197.48 1324.16 197.48C1323.44 197.48 1322.92 197.12 1322.6 196.4C1322.6 196.32 1322.52 196.04 1322.36 195.56C1320.68 191.32 1318.52 188.24 1315.88 186.32C1313.32 184.4 1310.36 183.2 1307 182.72C1303.64 182.24 1299.88 182 1295.72 182C1293.8 182 1291.84 182.04 1289.84 182.12C1287.92 182.12 1286 182.12 1284.08 182.12C1283.28 182.12 1282.4 182.32 1281.44 182.72C1280.48 183.12 1280 183.84 1280 184.88V217.64C1281.76 217.64 1283.48 217.68 1285.16 217.76C1286.92 217.76 1288.68 217.76 1290.44 217.76C1293.96 217.76 1297.52 217.64 1301.12 217.4C1304.72 217.08 1308.28 216.6 1311.8 215.96C1312.6 215.8 1313.4 215.64 1314.2 215.48C1315 215.24 1315.8 215.12 1316.6 215.12C1317 215.12 1317.2 215.44 1317.2 216.08C1317.2 216.4 1317.04 217.12 1316.72 218.24C1316.48 219.36 1316.12 220.4 1315.64 221.36C1315.24 222.32 1314.84 222.8 1314.44 222.8H1312.76C1310.2 222.8 1307.6 222.68 1304.96 222.44C1302.4 222.12 1299.84 221.96 1297.28 221.96C1296.4 221.96 1295 222 1293.08 222.08C1291.24 222.16 1289.32 222.36 1287.32 222.68C1285.32 222.92 1283.6 223.4 1282.16 224.12C1280.72 224.84 1280 225.88 1280 227.24V256.76C1280 259.24 1280.8 260.72 1282.4 261.2C1284 261.68 1285.8 261.92 1287.8 261.92H1303.4C1306.76 261.92 1309.72 261.56 1312.28 260.84C1314.84 260.12 1317.36 258.56 1319.84 256.16C1321.52 254.56 1322.88 252.56 1323.92 250.16C1324.96 247.76 1325.88 245.48 1326.68 243.32C1326.84 243 1327 242.72 1327.16 242.48C1327.32 242.16 1327.6 242 1328 242C1328.4 242 1328.76 242.12 1329.08 242.36C1329.4 242.6 1329.56 242.92 1329.56 243.32ZM1453.88 243.8C1453.88 244.36 1453.6 245.04 1453.04 245.84C1452.56 246.56 1452.16 247.16 1451.84 247.64C1447.28 254.68 1441.92 259.64 1435.76 262.52C1429.68 265.32 1422.48 266.72 1414.16 266.72C1405.28 266.72 1397.52 264.92 1390.88 261.32C1384.32 257.72 1379.24 252.64 1375.64 246.08C1372.04 239.52 1370.24 231.8 1370.24 222.92C1370.24 214.04 1372 206.12 1375.52 199.16C1379.04 192.2 1384.08 186.72 1390.64 182.72C1397.2 178.72 1405.04 176.72 1414.16 176.72C1417.68 176.72 1421.08 177.28 1424.36 178.4C1427.72 179.44 1431.12 180.44 1434.56 181.4C1436.4 181.88 1438.2 182.24 1439.96 182.48C1441.8 182.64 1443.6 182.72 1445.36 182.72C1445.68 185.44 1445.96 188.2 1446.2 191C1446.52 193.8 1446.88 196.6 1447.28 199.4C1447.44 200.44 1447.64 201.48 1447.88 202.52C1448.12 203.56 1448.24 204.64 1448.24 205.76C1448.24 206.96 1447.84 207.84 1447.04 208.4C1446.24 208.88 1445.32 209.12 1444.28 209.12C1443.48 209.12 1442.84 208.72 1442.36 207.92C1441.88 207.04 1441.52 206.08 1441.28 205.04C1441.04 204 1440.84 203.2 1440.68 202.64C1439 196 1436 190.68 1431.68 186.68C1427.44 182.6 1421.76 180.56 1414.64 180.56C1411.92 180.56 1409.12 181.04 1406.24 182C1403.44 182.88 1400.96 184.12 1398.8 185.72C1395.04 188.44 1391.96 191.8 1389.56 195.8C1387.24 199.8 1385.56 204.08 1384.52 208.64C1383.48 213.2 1382.96 217.76 1382.96 222.32C1382.96 225.52 1383.28 228.84 1383.92 232.28C1384.64 235.64 1385.6 238.8 1386.8 241.76C1389.6 248.4 1393.6 253.36 1398.8 256.64C1404 259.92 1410.16 261.56 1417.28 261.56C1423.44 261.56 1428.96 260.24 1433.84 257.6C1438.8 254.88 1443.16 251.08 1446.92 246.2C1447.32 245.56 1447.72 244.92 1448.12 244.28C1448.6 243.64 1449.08 243.04 1449.56 242.48C1449.88 242.08 1450.16 241.8 1450.4 241.64C1450.64 241.48 1451.04 241.4 1451.6 241.4C1452.08 241.4 1452.56 241.72 1453.04 242.36C1453.6 242.92 1453.88 243.4 1453.88 243.8ZM1581.2 263.48C1581.2 264.28 1581.04 264.92 1580.72 265.4C1580.4 265.8 1579.8 266 1578.92 266C1577.64 266 1576.32 266 1574.96 266C1573.68 265.92 1572.4 265.88 1571.12 265.88C1567.44 265.88 1563.76 265.92 1560.08 266C1556.48 266.08 1552.84 266.12 1549.16 266.12C1548.36 266.12 1547.84 265.96 1547.6 265.64C1547.36 265.24 1547.24 264.72 1547.24 264.08C1547.24 262.64 1547.52 261.92 1548.08 261.92C1548.72 261.92 1549.56 261.92 1550.6 261.92C1554.04 261.92 1556.16 261.08 1556.96 259.4C1557.76 257.72 1558.16 255.4 1558.16 252.44L1558.04 199.76L1506.56 251.24V253.16C1506.48 255.32 1506.84 257.32 1507.64 259.16C1508.44 260.92 1510.16 261.8 1512.8 261.8C1513.44 261.8 1514.12 261.8 1514.84 261.8C1515.56 261.72 1516.28 261.68 1517 261.68C1517.64 261.68 1518.12 261.92 1518.44 262.4C1518.76 262.8 1518.92 263.32 1518.92 263.96C1518.92 265.16 1518.56 265.84 1517.84 266C1517.12 266.16 1516.32 266.24 1515.44 266.24C1513.12 266.24 1510.8 266.16 1508.48 266C1506.24 265.92 1503.96 265.88 1501.64 265.88C1499 265.88 1496.36 265.92 1493.72 266C1491.08 266.16 1488.48 266.24 1485.92 266.24C1484.48 266.24 1483.76 265.48 1483.76 263.96C1483.76 263.56 1483.84 263.16 1484 262.76C1484.24 262.28 1484.6 262.04 1485.08 262.04C1487.64 262.04 1489.68 261.88 1491.2 261.56C1492.72 261.16 1493.8 260.32 1494.44 259.04C1495.16 257.68 1495.52 255.6 1495.52 252.8C1495.52 242.4 1495.48 232.04 1495.4 221.72C1495.4 211.4 1495.4 201.04 1495.4 190.64C1495.4 188.08 1494.96 186.12 1494.08 184.76C1493.28 183.32 1491.48 182.56 1488.68 182.48C1488.04 182.4 1487.36 182.4 1486.64 182.48C1485.92 182.56 1485.24 182.6 1484.6 182.6C1483.88 182.6 1483.4 182.4 1483.16 182C1483 181.52 1482.92 181 1482.92 180.44C1482.92 179.48 1483.08 178.84 1483.4 178.52C1483.8 178.12 1484.52 177.92 1485.56 177.92C1487.96 177.92 1490.36 177.96 1492.76 178.04C1495.16 178.04 1497.6 178.04 1500.08 178.04C1502.64 178.04 1505.16 178 1507.64 177.92C1510.12 177.76 1512.6 177.68 1515.08 177.68C1516.6 177.68 1517.36 178.4 1517.36 179.84C1517.36 181.12 1517.04 181.84 1516.4 182C1515.76 182.16 1514.96 182.24 1514 182.24C1510.64 182.24 1508.52 182.92 1507.64 184.28C1506.76 185.64 1506.36 187.84 1506.44 190.88V245.72L1558.16 191.48C1558.16 190.04 1558 188.64 1557.68 187.28C1557.36 185.84 1556.76 184.68 1555.88 183.8C1555.08 182.84 1553.8 182.36 1552.04 182.36C1551.32 182.36 1550.6 182.4 1549.88 182.48C1549.16 182.56 1548.48 182.6 1547.84 182.6C1547.12 182.6 1546.64 182.4 1546.4 182C1546.24 181.52 1546.16 181 1546.16 180.44C1546.16 179.32 1546.36 178.64 1546.76 178.4C1547.24 178.08 1548 177.92 1549.04 177.92C1551.36 177.92 1553.68 178 1556 178.16C1558.32 178.24 1560.68 178.28 1563.08 178.28C1565.64 178.28 1568.16 178.16 1570.64 177.92C1573.2 177.68 1575.76 177.56 1578.32 177.56C1579.76 177.56 1580.48 178.28 1580.48 179.72C1580.48 181 1580.12 181.72 1579.4 181.88C1578.76 181.96 1577.96 182 1577 182C1573.56 182 1571.4 182.8 1570.52 184.4C1569.64 186 1569.2 188.32 1569.2 191.36C1569.2 201.6 1569.2 211.84 1569.2 222.08C1569.28 232.32 1569.32 242.56 1569.32 252.8C1569.32 254.88 1569.68 256.88 1570.4 258.8C1571.2 260.64 1572.88 261.56 1575.44 261.56C1576.08 261.56 1576.76 261.56 1577.48 261.56C1578.2 261.48 1578.92 261.44 1579.64 261.44C1580.28 261.44 1580.68 261.64 1580.84 262.04C1581.08 262.36 1581.2 262.84 1581.2 263.48ZM1693.88 243.8C1693.88 244.36 1693.6 245.04 1693.04 245.84C1692.56 246.56 1692.16 247.16 1691.84 247.64C1687.28 254.68 1681.92 259.64 1675.76 262.52C1669.68 265.32 1662.48 266.72 1654.16 266.72C1645.28 266.72 1637.52 264.92 1630.88 261.32C1624.32 257.72 1619.24 252.64 1615.64 246.08C1612.04 239.52 1610.24 231.8 1610.24 222.92C1610.24 214.04 1612 206.12 1615.52 199.16C1619.04 192.2 1624.08 186.72 1630.64 182.72C1637.2 178.72 1645.04 176.72 1654.16 176.72C1657.68 176.72 1661.08 177.28 1664.36 178.4C1667.72 179.44 1671.12 180.44 1674.56 181.4C1676.4 181.88 1678.2 182.24 1679.96 182.48C1681.8 182.64 1683.6 182.72 1685.36 182.72C1685.68 185.44 1685.96 188.2 1686.2 191C1686.52 193.8 1686.88 196.6 1687.28 199.4C1687.44 200.44 1687.64 201.48 1687.88 202.52C1688.12 203.56 1688.24 204.64 1688.24 205.76C1688.24 206.96 1687.84 207.84 1687.04 208.4C1686.24 208.88 1685.32 209.12 1684.28 209.12C1683.48 209.12 1682.84 208.72 1682.36 207.92C1681.88 207.04 1681.52 206.08 1681.28 205.04C1681.04 204 1680.84 203.2 1680.68 202.64C1679 196 1676 190.68 1671.68 186.68C1667.44 182.6 1661.76 180.56 1654.64 180.56C1651.92 180.56 1649.12 181.04 1646.24 182C1643.44 182.88 1640.96 184.12 1638.8 185.72C1635.04 188.44 1631.96 191.8 1629.56 195.8C1627.24 199.8 1625.56 204.08 1624.52 208.64C1623.48 213.2 1622.96 217.76 1622.96 222.32C1622.96 225.52 1623.28 228.84 1623.92 232.28C1624.64 235.64 1625.6 238.8 1626.8 241.76C1629.6 248.4 1633.6 253.36 1638.8 256.64C1644 259.92 1650.16 261.56 1657.28 261.56C1663.44 261.56 1668.96 260.24 1673.84 257.6C1678.8 254.88 1683.16 251.08 1686.92 246.2C1687.32 245.56 1687.72 244.92 1688.12 244.28C1688.6 243.64 1689.08 243.04 1689.56 242.48C1689.88 242.08 1690.16 241.8 1690.4 241.64C1690.64 241.48 1691.04 241.4 1691.6 241.4C1692.08 241.4 1692.56 241.72 1693.04 242.36C1693.6 242.92 1693.88 243.4 1693.88 243.8ZM1814.24 263.96C1814.24 264.92 1814.04 265.52 1813.64 265.76C1813.24 265.92 1812.6 266 1811.72 266C1809.4 266 1807.08 265.96 1804.76 265.88C1802.44 265.72 1800.12 265.64 1797.8 265.64C1795.32 265.64 1792.8 265.72 1790.24 265.88C1787.76 265.96 1785.24 266 1782.68 266C1781.56 266 1781 265.44 1781 264.32C1781 263.44 1781.52 262.88 1782.56 262.64C1783.68 262.4 1784.92 262.24 1786.28 262.16C1787.64 262.08 1788.88 261.8 1790 261.32C1791.2 260.76 1791.96 259.68 1792.28 258.08C1792.36 257.44 1792.4 256.84 1792.4 256.28C1792.4 255.64 1792.4 255.04 1792.4 254.48C1792.4 253.44 1792.4 251.44 1792.4 248.48C1792.4 245.52 1792.4 241.96 1792.4 237.8C1792.48 233.64 1792.52 229.2 1792.52 224.48C1792.52 219.76 1792.48 215.12 1792.4 210.56C1792.4 205.92 1792.36 201.68 1792.28 197.84C1792.28 194 1792.24 190.88 1792.16 188.48C1792.08 186.08 1791.96 184.76 1791.8 184.52C1791.4 183.8 1790.8 183.32 1790 183.08C1789.28 182.76 1788.56 182.6 1787.84 182.6H1765.76C1764.72 193.24 1763.56 203.92 1762.28 214.64C1761 225.28 1759.12 235.84 1756.64 246.32C1755.6 250.88 1754.16 254.88 1752.32 258.32C1750.56 261.68 1747.56 264.56 1743.32 266.96C1741.88 267.76 1739.96 268.6 1737.56 269.48C1735.16 270.44 1733.16 270.92 1731.56 270.92C1730.28 270.92 1729.2 270.48 1728.32 269.6C1727.44 268.8 1727 267.76 1727 266.48C1727 264.56 1727.8 262.88 1729.4 261.44C1731 260 1732.68 259.12 1734.44 258.8C1738.12 258.08 1741 256.84 1743.08 255.08C1745.24 253.32 1746.92 251.08 1748.12 248.36C1749.4 245.64 1750.4 242.64 1751.12 239.36C1753.04 230.56 1754.6 221.68 1755.8 212.72C1757 203.76 1757.6 194.8 1757.6 185.84C1757.6 184.64 1757.36 183.88 1756.88 183.56C1756.4 183.16 1755.6 182.92 1754.48 182.84C1753.76 182.76 1752.64 182.76 1751.12 182.84C1749.68 182.84 1748.36 182.72 1747.16 182.48C1745.96 182.16 1745.36 181.52 1745.36 180.56C1745.36 178.8 1746.28 177.92 1748.12 177.92H1810.04C1810.76 177.92 1811.4 178.08 1811.96 178.4C1812.52 178.72 1812.8 179.32 1812.8 180.2C1812.8 181.32 1812.28 182 1811.24 182.24C1810.28 182.48 1809.16 182.56 1807.88 182.48C1806.68 182.4 1805.76 182.48 1805.12 182.72C1804.48 183.04 1804.04 183.36 1803.8 183.68C1803.56 183.92 1803.36 184.36 1803.2 185C1802.96 186.28 1802.88 187.6 1802.96 188.96C1803.04 190.32 1803.08 191.64 1803.08 192.92C1803.08 196.12 1803.04 199.32 1802.96 202.52C1802.88 205.72 1802.84 208.92 1802.84 212.12C1802.84 219.16 1802.88 226.2 1802.96 233.24C1803.12 240.28 1803.2 247.32 1803.2 254.36C1803.2 256.36 1803.52 258.2 1804.16 259.88C1804.8 261.56 1806.36 262.4 1808.84 262.4C1809.48 262.4 1810.12 262.36 1810.76 262.28C1811.48 262.12 1812.2 262.04 1812.92 262.04C1813.48 262.04 1813.84 262.24 1814 262.64C1814.16 263.04 1814.24 263.48 1814.24 263.96ZM1903.4 230.84C1900.68 223.48 1898 216.12 1895.36 208.76C1892.72 201.32 1890 193.92 1887.2 186.56C1884.48 194 1881.72 201.44 1878.92 208.88C1876.2 216.24 1873.32 223.56 1870.28 230.84H1903.4ZM1939.88 263.72C1939.88 264.28 1939.76 264.8 1939.52 265.28C1939.28 265.76 1938.84 266 1938.2 266C1935.72 266 1933.28 265.96 1930.88 265.88C1928.48 265.8 1926.08 265.76 1923.68 265.76C1920.32 265.76 1917 265.8 1913.72 265.88C1910.44 265.96 1907.16 266 1903.88 266C1903.48 266 1903.2 265.76 1903.04 265.28C1902.88 264.72 1902.8 264.32 1902.8 264.08C1902.8 262.96 1903.32 262.36 1904.36 262.28C1905.48 262.12 1906.4 262.04 1907.12 262.04C1908.4 262.04 1909.76 261.92 1911.2 261.68C1912.64 261.36 1913.36 260.32 1913.36 258.56C1913.36 257.84 1913 256.4 1912.28 254.24C1911.56 252.08 1910.68 249.68 1909.64 247.04C1908.6 244.4 1907.6 241.96 1906.64 239.72C1905.76 237.4 1905.12 235.72 1904.72 234.68H1869.32C1869.08 235.32 1868.6 236.56 1867.88 238.4C1867.24 240.16 1866.48 242.2 1865.6 244.52C1864.8 246.76 1864 249 1863.2 251.24C1862.4 253.4 1861.72 255.28 1861.16 256.88C1860.68 258.48 1860.44 259.44 1860.44 259.76C1860.44 260.56 1860.88 261.16 1861.76 261.56C1862.64 261.96 1863.72 262.2 1865 262.28C1866.28 262.36 1867.48 262.4 1868.6 262.4C1869.8 262.32 1870.68 262.28 1871.24 262.28C1871.88 262.28 1872.24 262.52 1872.32 263C1872.48 263.4 1872.56 263.84 1872.56 264.32C1872.56 265.44 1872 266 1870.88 266H1845.68C1845.12 266 1844.72 265.8 1844.48 265.4C1844.32 265 1844.24 264.6 1844.24 264.2C1844.24 262.92 1844.88 262.28 1846.16 262.28C1848.8 262.28 1850.92 261.72 1852.52 260.6C1854.12 259.4 1855.48 257.64 1856.6 255.32C1857 254.44 1857.4 253.52 1857.8 252.56C1858.2 251.6 1858.6 250.64 1859 249.68C1863.64 237.84 1868.16 226 1872.56 214.16C1877.04 202.24 1881.44 190.32 1885.76 178.4C1887.04 178 1888.44 177.64 1889.96 177.32C1891.48 177 1892.92 176.84 1894.28 176.84C1894.6 176.84 1894.76 176.96 1894.76 177.2L1922.48 246.92C1923.12 248.44 1923.76 250.04 1924.4 251.72C1925.04 253.32 1925.72 254.92 1926.44 256.52C1927.48 258.6 1928.76 259.92 1930.28 260.48C1931.8 261.04 1933.28 261.32 1934.72 261.32C1936.16 261.32 1937.36 261.4 1938.32 261.56C1939.36 261.72 1939.88 262.44 1939.88 263.72ZM2038.64 241.4C2038.64 234.76 2037.04 229.8 2033.84 226.52C2030.72 223.16 2025.84 221.48 2019.2 221.48C2018.16 221.48 2017.08 221.48 2015.96 221.48C2014.84 221.4 2013.72 221.36 2012.6 221.36C2009.88 221.36 2007.12 221.44 2004.32 221.6C2001.52 221.76 1998.72 221.88 1995.92 221.96V258.44C1995.92 260.04 1996.56 261.16 1997.84 261.8C1999.12 262.44 2000.56 262.8 2002.16 262.88C2003.84 262.88 2005.24 262.88 2006.36 262.88C2007.72 262.88 2009.08 262.88 2010.44 262.88C2011.8 262.88 2013.12 262.84 2014.4 262.76C2018.88 262.52 2022.92 261.68 2026.52 260.24C2030.2 258.72 2033.12 256.44 2035.28 253.4C2037.52 250.28 2038.64 246.28 2038.64 241.4ZM2032.28 199.16C2032.28 195.24 2031.56 192.12 2030.12 189.8C2028.76 187.48 2026.88 185.76 2024.48 184.64C2022.16 183.44 2019.52 182.64 2016.56 182.24C2013.6 181.84 2010.52 181.64 2007.32 181.64C2006.76 181.64 2005.88 181.68 2004.68 181.76C2003.48 181.84 2002.2 182 2000.84 182.24C1999.48 182.4 1998.32 182.72 1997.36 183.2C1996.4 183.68 1995.92 184.28 1995.92 185V218H2007.08C2010.28 218 2013.64 217.8 2017.16 217.4C2020.68 216.92 2023.68 215.56 2026.16 213.32C2028 211.64 2029.48 209.48 2030.6 206.84C2031.72 204.2 2032.28 201.64 2032.28 199.16ZM2051.36 239.72C2051.36 245.56 2049.88 250.52 2046.92 254.6C2043.96 258.68 2039.8 261.72 2034.44 263.72C2031.16 265 2027.72 265.72 2024.12 265.88C2020.6 266.04 2017.08 266.12 2013.56 266.12C2009.4 266.12 2005.28 266.08 2001.2 266C1997.12 265.84 1993 265.76 1988.84 265.76C1986.44 265.76 1984 265.84 1981.52 266C1979.12 266.16 1976.72 266.24 1974.32 266.24C1973.2 266.24 1972.64 265.68 1972.64 264.56C1972.64 263.44 1972.84 262.84 1973.24 262.76C1973.72 262.6 1974.36 262.52 1975.16 262.52C1977 262.52 1978.6 262.44 1979.96 262.28C1981.32 262.12 1982.4 261.6 1983.2 260.72C1984.08 259.84 1984.6 258.32 1984.76 256.16C1984.92 254.56 1985 252.92 1985 251.24C1985 249.48 1985 247.8 1985 246.2C1985 236.6 1984.96 227.04 1984.88 217.52C1984.88 207.92 1984.88 198.36 1984.88 188.84C1984.88 187.64 1984.68 186.56 1984.28 185.6C1983.88 184.56 1983.04 183.8 1981.76 183.32C1980.88 182.92 1979.8 182.72 1978.52 182.72C1977.32 182.72 1976.2 182.72 1975.16 182.72C1973.8 182.72 1973.12 182.04 1973.12 180.68C1973.12 180.44 1973.2 180.08 1973.36 179.6C1973.52 179.04 1973.8 178.76 1974.2 178.76C1975.24 178.76 1976.28 178.8 1977.32 178.88C1978.36 178.96 1979.4 179 1980.44 179C1982.6 179 1984.76 179.04 1986.92 179.12C1989.16 179.12 1991.36 179.12 1993.52 179.12C1997.04 179.12 2000.52 178.92 2003.96 178.52C2007.48 178.04 2010.96 177.8 2014.4 177.8C2018 177.8 2021.6 178 2025.2 178.4C2028.8 178.8 2032.04 179.64 2034.92 180.92C2037.88 182.2 2040.24 184.2 2042 186.92C2043.76 189.56 2044.64 193.16 2044.64 197.72C2044.64 201.24 2043.68 204.36 2041.76 207.08C2039.92 209.72 2037.56 211.96 2034.68 213.8C2031.8 215.64 2028.84 217.12 2025.8 218.24C2028.76 218.64 2031.72 219.36 2034.68 220.4C2037.72 221.36 2040.48 222.72 2042.96 224.48C2045.52 226.16 2047.56 228.28 2049.08 230.84C2050.6 233.32 2051.36 236.28 2051.36 239.72ZM2143.4 230.84C2140.68 223.48 2138 216.12 2135.36 208.76C2132.72 201.32 2130 193.92 2127.2 186.56C2124.48 194 2121.72 201.44 2118.92 208.88C2116.2 216.24 2113.32 223.56 2110.28 230.84H2143.4ZM2179.88 263.72C2179.88 264.28 2179.76 264.8 2179.52 265.28C2179.28 265.76 2178.84 266 2178.2 266C2175.72 266 2173.28 265.96 2170.88 265.88C2168.48 265.8 2166.08 265.76 2163.68 265.76C2160.32 265.76 2157 265.8 2153.72 265.88C2150.44 265.96 2147.16 266 2143.88 266C2143.48 266 2143.2 265.76 2143.04 265.28C2142.88 264.72 2142.8 264.32 2142.8 264.08C2142.8 262.96 2143.32 262.36 2144.36 262.28C2145.48 262.12 2146.4 262.04 2147.12 262.04C2148.4 262.04 2149.76 261.92 2151.2 261.68C2152.64 261.36 2153.36 260.32 2153.36 258.56C2153.36 257.84 2153 256.4 2152.28 254.24C2151.56 252.08 2150.68 249.68 2149.64 247.04C2148.6 244.4 2147.6 241.96 2146.64 239.72C2145.76 237.4 2145.12 235.72 2144.72 234.68H2109.32C2109.08 235.32 2108.6 236.56 2107.88 238.4C2107.24 240.16 2106.48 242.2 2105.6 244.52C2104.8 246.76 2104 249 2103.2 251.24C2102.4 253.4 2101.72 255.28 2101.16 256.88C2100.68 258.48 2100.44 259.44 2100.44 259.76C2100.44 260.56 2100.88 261.16 2101.76 261.56C2102.64 261.96 2103.72 262.2 2105 262.28C2106.28 262.36 2107.48 262.4 2108.6 262.4C2109.8 262.32 2110.68 262.28 2111.24 262.28C2111.88 262.28 2112.24 262.52 2112.32 263C2112.48 263.4 2112.56 263.84 2112.56 264.32C2112.56 265.44 2112 266 2110.88 266H2085.68C2085.12 266 2084.72 265.8 2084.48 265.4C2084.32 265 2084.24 264.6 2084.24 264.2C2084.24 262.92 2084.88 262.28 2086.16 262.28C2088.8 262.28 2090.92 261.72 2092.52 260.6C2094.12 259.4 2095.48 257.64 2096.6 255.32C2097 254.44 2097.4 253.52 2097.8 252.56C2098.2 251.6 2098.6 250.64 2099 249.68C2103.64 237.84 2108.16 226 2112.56 214.16C2117.04 202.24 2121.44 190.32 2125.76 178.4C2127.04 178 2128.44 177.64 2129.96 177.32C2131.48 177 2132.92 176.84 2134.28 176.84C2134.6 176.84 2134.76 176.96 2134.76 177.2L2162.48 246.92C2163.12 248.44 2163.76 250.04 2164.4 251.72C2165.04 253.32 2165.72 254.92 2166.44 256.52C2167.48 258.6 2168.76 259.92 2170.28 260.48C2171.8 261.04 2173.28 261.32 2174.72 261.32C2176.16 261.32 2177.36 261.4 2178.32 261.56C2179.36 261.72 2179.88 262.44 2179.88 263.72ZM1190.72 371.12C1190.72 370.48 1190.68 369.28 1190.6 367.52C1190.6 365.76 1190.56 364.04 1190.48 362.36C1190.4 360.68 1190.24 359.64 1190 359.24C1189.52 358.44 1188.92 357.92 1188.2 357.68C1187.56 357.36 1186.8 357.2 1185.92 357.2H1162.64C1161.68 365.92 1160.76 374.72 1159.88 383.6C1159 392.48 1157.76 401.28 1156.16 410C1154.56 418.72 1152.2 427.24 1149.08 435.56H1168.4C1172.08 435.56 1175.76 435.56 1179.44 435.56C1183.12 435.48 1186.8 435.44 1190.48 435.44C1190.56 431.92 1190.6 428.44 1190.6 425C1190.68 421.48 1190.72 417.96 1190.72 414.44V371.12ZM1218.2 450.56C1218.2 451.28 1218.08 452 1217.84 452.72C1217.68 453.52 1217.16 453.92 1216.28 453.92C1215.72 453.92 1215.24 453.72 1214.84 453.32C1214.44 453 1214.12 452.6 1213.88 452.12C1212.92 450.52 1212.04 449.08 1211.24 447.8C1210.44 446.52 1209.28 445.28 1207.76 444.08C1206.56 443.04 1204.96 442.2 1202.96 441.56C1201.04 441 1199.08 440.56 1197.08 440.24C1195.08 439.92 1193.28 439.76 1191.68 439.76H1157.6C1154.96 439.76 1151.88 439.84 1148.36 440C1144.84 440.24 1141.44 440.84 1138.16 441.8C1134.88 442.76 1132.32 444.28 1130.48 446.36C1129.52 447.4 1128.76 448.52 1128.2 449.72C1127.72 451 1127.04 452.16 1126.16 453.2C1125.84 453.6 1125.48 453.8 1125.08 453.8C1124.52 453.8 1124.12 453.72 1123.88 453.56C1123.72 453.4 1123.64 453 1123.64 452.36C1123.64 450.04 1123.84 447.6 1124.24 445.04C1124.72 442.56 1125.24 440.2 1125.8 437.96C1126.04 437 1126.36 436.28 1126.76 435.8C1127.24 435.24 1128.04 434.96 1129.16 434.96C1131.72 434.96 1134.32 434.4 1136.96 433.28C1139.6 432.16 1141.4 430.28 1142.36 427.64C1146.04 417.16 1148.8 406.16 1150.64 394.64C1152.56 383.04 1153.52 371.72 1153.52 360.68C1153.52 360.04 1153.44 359.44 1153.28 358.88C1153.12 358.32 1152.72 357.88 1152.08 357.56C1152 357.48 1151.56 357.44 1150.76 357.44C1150.04 357.36 1149.28 357.32 1148.48 357.32C1147.76 357.24 1147.28 357.2 1147.04 357.2C1146.16 357.2 1145.28 357.28 1144.4 357.44C1143.6 357.6 1142.76 357.68 1141.88 357.68C1140.76 357.68 1140.2 357.12 1140.2 356C1140.2 355.36 1140.28 354.52 1140.44 353.48C1140.6 352.44 1141.16 351.92 1142.12 351.92C1144.36 351.92 1146.56 352 1148.72 352.16C1150.96 352.32 1153.2 352.4 1155.44 352.4H1174.88C1180.88 352.4 1186.88 352.32 1192.88 352.16C1198.88 351.92 1204.88 351.8 1210.88 351.8C1211.52 351.8 1211.92 351.96 1212.08 352.28C1212.32 352.52 1212.44 352.96 1212.44 353.6C1212.44 355.12 1212.24 356.12 1211.84 356.6C1211.52 357.08 1210.52 357.32 1208.84 357.32C1208.44 357.32 1208 357.28 1207.52 357.2C1207.12 357.12 1206.72 357.08 1206.32 357.08C1205.2 357.08 1204.32 357.24 1203.68 357.56C1203.04 357.88 1202.64 358.64 1202.48 359.84C1202.16 361.12 1202 362.44 1202 363.8C1202.08 365.08 1202.12 366.4 1202.12 367.76C1202.04 375.6 1201.92 383.44 1201.76 391.28C1201.68 399.12 1201.64 406.96 1201.64 414.8C1201.64 421.52 1201.76 428.32 1202 435.2C1204.08 435.2 1206.2 435.16 1208.36 435.08C1210.52 435 1212.68 434.96 1214.84 434.96L1216.16 435.2C1216.72 435.36 1217.08 435.72 1217.24 436.28C1217.4 436.84 1217.52 437.36 1217.6 437.84C1217.76 439.92 1217.88 442.04 1217.96 444.2C1218.12 446.36 1218.2 448.48 1218.2 450.56ZM1317.32 374.72C1317.32 369.84 1316.08 366.08 1313.6 363.44C1311.12 360.72 1307.96 358.84 1304.12 357.8C1300.36 356.76 1296.44 356.24 1292.36 356.24C1291.64 356.24 1290.56 356.32 1289.12 356.48C1287.68 356.56 1286.16 356.76 1284.56 357.08C1282.96 357.4 1281.6 357.88 1280.48 358.52C1279.36 359.08 1278.8 359.84 1278.8 360.8V392.72C1280.8 393.92 1283.2 394.72 1286 395.12C1288.8 395.44 1291.36 395.6 1293.68 395.6C1298.24 395.6 1302.28 394.88 1305.8 393.44C1309.4 392 1312.2 389.76 1314.2 386.72C1316.28 383.6 1317.32 379.6 1317.32 374.72ZM1329.8 374C1329.8 379.44 1328.76 383.88 1326.68 387.32C1324.6 390.68 1321.8 393.28 1318.28 395.12C1314.84 396.96 1310.96 398.24 1306.64 398.96C1302.32 399.6 1297.92 399.92 1293.44 399.92C1290.96 399.92 1288.52 399.76 1286.12 399.44C1283.72 399.12 1281.32 398.8 1278.92 398.48C1278.92 403.28 1278.92 408.08 1278.92 412.88C1279 417.6 1279.04 422.36 1279.04 427.16C1279.04 429.72 1279.48 431.84 1280.36 433.52C1281.32 435.2 1283.24 436.04 1286.12 436.04C1286.76 436.04 1287.4 436.04 1288.04 436.04C1288.76 435.96 1289.44 435.92 1290.08 435.92C1290.72 435.92 1291.16 436.12 1291.4 436.52C1291.72 436.92 1291.88 437.4 1291.88 437.96C1291.88 439.48 1291 440.24 1289.24 440.24C1286.6 440.24 1283.96 440.16 1281.32 440C1278.68 439.92 1276.08 439.88 1273.52 439.88C1270.72 439.88 1267.96 439.96 1265.24 440.12C1262.52 440.28 1259.76 440.36 1256.96 440.36C1256.16 440.36 1255.68 440.16 1255.52 439.76C1255.36 439.28 1255.28 438.76 1255.28 438.2C1255.28 437.88 1255.36 437.48 1255.52 437C1255.76 436.44 1256.08 436.16 1256.48 436.16C1257.6 436.16 1258.72 436.16 1259.84 436.16C1260.96 436.16 1262.04 436.04 1263.08 435.8C1265.4 435.4 1266.8 434.48 1267.28 433.04C1267.76 431.6 1268 429.88 1268 427.88C1268 417.72 1268 407.56 1268 397.4C1268.08 387.16 1268.12 376.96 1268.12 366.8C1268.12 366.4 1268.12 365.72 1268.12 364.76C1268.12 363.72 1268.08 362.72 1268 361.76C1268 360.8 1267.96 360.16 1267.88 359.84C1267.48 358.48 1266.68 357.68 1265.48 357.44C1264.28 357.2 1263.12 357.08 1262 357.08C1261.2 357.08 1260.4 357.12 1259.6 357.2C1258.8 357.2 1258 357.2 1257.2 357.2C1256.56 357.2 1255.92 357.04 1255.28 356.72C1254.64 356.32 1254.32 355.76 1254.32 355.04C1254.32 354.64 1254.36 354.16 1254.44 353.6C1254.6 352.96 1255 352.64 1255.64 352.64H1271.6C1276.56 352.64 1281.52 352.52 1286.48 352.28C1291.44 351.96 1296.4 351.8 1301.36 351.8C1306.32 351.8 1310.96 352.48 1315.28 353.84C1319.6 355.12 1323.08 357.36 1325.72 360.56C1328.44 363.76 1329.8 368.24 1329.8 374ZM1453.4 354.08C1453.4 355.36 1452.96 356.04 1452.08 356.12C1451.28 356.2 1450.44 356.24 1449.56 356.24C1447.24 356.24 1445.52 356.56 1444.4 357.2C1443.36 357.76 1442.24 359.08 1441.04 361.16C1439.76 363.4 1438.56 365.72 1437.44 368.12C1436.4 370.52 1435.32 372.92 1434.2 375.32C1431.96 380.04 1429.64 384.8 1427.24 389.6C1424.92 394.32 1422.6 399.04 1420.28 403.76C1418.44 407.68 1416.56 411.6 1414.64 415.52C1412.8 419.44 1410.72 423.28 1408.4 427.04C1405.92 431.28 1402.84 434.8 1399.16 437.6C1395.48 440.4 1391.04 441.8 1385.84 441.8C1383.84 441.8 1381.88 441.48 1379.96 440.84C1378.04 440.28 1376.44 439.32 1375.16 437.96C1373.88 436.6 1373.24 434.72 1373.24 432.32C1373.24 429.52 1374.08 427.64 1375.76 426.68C1377.44 425.72 1379.52 425.24 1382 425.24C1382.48 428.04 1383.56 430.32 1385.24 432.08C1386.92 433.76 1389.24 434.6 1392.2 434.6C1395.32 434.6 1397.68 433.68 1399.28 431.84C1400.96 429.92 1402.44 427.72 1403.72 425.24C1404.6 423.4 1405.36 421.52 1406 419.6C1406.64 417.68 1406.96 415.72 1406.96 413.72C1406.96 413.16 1406.88 412.6 1406.72 412.04C1406.64 411.48 1406.52 410.92 1406.36 410.36C1405.16 406.76 1403.68 403.28 1401.92 399.92C1400.16 396.56 1398.52 393.16 1397 389.72C1396.28 388.04 1395.28 385.84 1394 383.12C1392.8 380.32 1391.48 377.4 1390.04 374.36C1388.6 371.32 1387.16 368.56 1385.72 366.08C1384.36 363.52 1383.2 361.64 1382.24 360.44C1380.8 358.84 1379.4 358 1378.04 357.92C1376.68 357.76 1375.04 357.68 1373.12 357.68C1372.4 357.68 1371.8 357.56 1371.32 357.32C1370.92 357.08 1370.72 356.52 1370.72 355.64C1370.72 354.76 1371.2 354.08 1372.16 353.6C1372.32 353.52 1373.24 353.4 1374.92 353.24C1376.68 353 1378.72 352.8 1381.04 352.64C1383.36 352.4 1385.44 352.24 1387.28 352.16C1389.2 352 1390.4 351.92 1390.88 351.92C1391.76 351.92 1392.32 352.32 1392.56 353.12C1392.96 353.44 1393.28 353.84 1393.52 354.32C1393.84 354.72 1394.08 355.12 1394.24 355.52C1398.08 363.52 1401.64 371.68 1404.92 380C1408.28 388.24 1411.68 396.4 1415.12 404.48C1415.68 403.36 1416.48 401.64 1417.52 399.32C1418.64 397 1419.88 394.32 1421.24 391.28C1422.68 388.16 1424.12 385 1425.56 381.8C1427 378.52 1428.32 375.4 1429.52 372.44C1430.72 369.48 1431.68 366.92 1432.4 364.76C1433.2 362.6 1433.6 361.16 1433.6 360.44C1433.6 360.04 1433.6 359.64 1433.6 359.24C1433.68 358.84 1433.72 358.44 1433.72 358.04C1433.72 357.4 1433.44 356.96 1432.88 356.72C1432.48 356.4 1431.68 356.24 1430.48 356.24C1429.36 356.16 1428.2 356.12 1427 356.12C1425.8 356.12 1424.92 356.12 1424.36 356.12C1423.64 356.12 1423.04 356 1422.56 355.76C1422.08 355.44 1421.84 354.88 1421.84 354.08C1421.84 353.2 1422.2 352.64 1422.92 352.4C1423.72 352.08 1424.56 351.92 1425.44 351.92C1426.4 351.92 1427.16 351.92 1427.72 351.92C1429.56 351.92 1431.36 351.96 1433.12 352.04C1434.96 352.12 1436.8 352.16 1438.64 352.16C1440.8 352.16 1442.96 352.12 1445.12 352.04C1447.28 351.88 1449.48 351.8 1451.72 351.8C1452.44 351.8 1452.88 352.04 1453.04 352.52C1453.28 352.92 1453.4 353.44 1453.4 354.08ZM1588.28 354.2C1588.28 354.92 1587.96 355.48 1587.32 355.88C1586.76 356.2 1586.16 356.36 1585.52 356.36C1584.56 356.36 1583.6 356.32 1582.64 356.24C1581.68 356.08 1580.72 356 1579.76 356C1578.72 356 1577.88 356.12 1577.24 356.36C1576.6 356.6 1576 357.24 1575.44 358.28C1575.44 358.28 1575.4 359.04 1575.32 360.56C1575.32 362.08 1575.32 364 1575.32 366.32C1575.32 368.56 1575.32 370.88 1575.32 373.28C1575.32 375.68 1575.32 377.76 1575.32 379.52C1575.32 381.28 1575.32 382.4 1575.32 382.88V397.88C1575.32 402.76 1575.32 407.68 1575.32 412.64C1575.4 417.52 1575.44 422.44 1575.44 427.4C1575.44 429.4 1575.8 431.28 1576.52 433.04C1577.24 434.8 1578.8 435.68 1581.2 435.68C1582 435.68 1582.8 435.68 1583.6 435.68C1584.4 435.6 1585.2 435.56 1586 435.56C1586.56 435.56 1587 435.76 1587.32 436.16C1587.64 436.56 1587.8 437.04 1587.8 437.6C1587.8 438.8 1587.48 439.52 1586.84 439.76C1586.2 439.92 1585.4 440 1584.44 440C1582.04 440 1579.64 439.96 1577.24 439.88C1574.92 439.72 1572.56 439.64 1570.16 439.64C1567.44 439.64 1564.68 439.72 1561.88 439.88C1559.08 440.04 1556.28 440.12 1553.48 440.12C1552.68 440.12 1552.2 439.92 1552.04 439.52C1551.88 439.04 1551.8 438.52 1551.8 437.96C1551.8 437.16 1552.2 436.64 1553 436.4C1553.8 436.08 1554.68 435.92 1555.64 435.92C1556.6 435.92 1557.32 435.88 1557.8 435.8C1560.36 435.4 1562.04 434.36 1562.84 432.68C1563.64 431 1564.04 429 1564.04 426.68V356.36C1559.24 368.12 1554.4 379.88 1549.52 391.64C1544.64 403.4 1539.88 415.2 1535.24 427.04C1534.68 428.56 1534.08 430.12 1533.44 431.72C1532.88 433.32 1532.24 434.88 1531.52 436.4C1530.72 436.88 1529.72 437.12 1528.52 437.12C1528.12 437.12 1527.8 437 1527.56 436.76C1526.92 435.88 1526.4 434.88 1526 433.76C1525.6 432.64 1525.2 431.56 1524.8 430.52L1519.16 417.68C1515.88 410.08 1512.52 402.52 1509.08 395C1505.64 387.4 1502.28 379.84 1499 372.32L1492.52 357.08C1492.52 368.92 1492.48 380.72 1492.4 392.48C1492.4 404.24 1492.4 416.04 1492.4 427.88C1492.4 430.68 1492.8 432.6 1493.6 433.64C1494.48 434.68 1495.68 435.28 1497.2 435.44C1498.8 435.52 1500.72 435.56 1502.96 435.56C1504.16 435.56 1504.76 436.28 1504.76 437.72C1504.76 438.6 1504.52 439.16 1504.04 439.4C1503.56 439.64 1502.92 439.76 1502.12 439.76C1500.84 439.76 1499.56 439.76 1498.28 439.76C1497 439.68 1495.72 439.64 1494.44 439.64C1491.72 439.64 1489.04 439.76 1486.4 440C1483.76 440.16 1481.08 440.24 1478.36 440.24C1477.56 440.24 1477 440.08 1476.68 439.76C1476.44 439.44 1476.32 438.88 1476.32 438.08C1476.32 437.04 1476.76 436.44 1477.64 436.28C1478.6 436.12 1479.44 436.04 1480.16 436.04C1483.44 436.04 1485.56 435.44 1486.52 434.24C1487.48 432.96 1487.96 430.76 1487.96 427.64C1487.96 416.36 1488 405.08 1488.08 393.8C1488.24 382.44 1488.32 371.12 1488.32 359.84C1488.32 358.16 1487.92 357.08 1487.12 356.6C1486.32 356.12 1485.16 355.88 1483.64 355.88C1482.84 355.88 1482 355.96 1481.12 356.12C1480.32 356.2 1479.48 356.24 1478.6 356.24C1476.76 356.24 1475.84 355.44 1475.84 353.84C1475.84 353.44 1475.88 353 1475.96 352.52C1476.12 352.04 1476.48 351.8 1477.04 351.8C1479.76 351.8 1482.44 351.88 1485.08 352.04C1487.72 352.12 1490.4 352.16 1493.12 352.16C1494.72 352.16 1496.32 352.16 1497.92 352.16C1499.52 352.16 1501.12 352.12 1502.72 352.04L1533.2 421.28C1538 409.84 1542.76 398.36 1547.48 386.84C1552.2 375.32 1556.76 363.76 1561.16 352.16C1565.48 352.16 1569.76 352.12 1574 352.04C1578.32 351.88 1582.64 351.8 1586.96 351.8C1587.6 351.8 1587.96 352.12 1588.04 352.76C1588.2 353.32 1588.28 353.8 1588.28 354.2ZM1689.56 417.32C1689.56 418.04 1689.48 418.8 1689.32 419.6C1689.24 420.4 1689.12 421.16 1688.96 421.88C1688.72 423.48 1688.48 425.08 1688.24 426.68C1688 428.2 1687.8 429.76 1687.64 431.36C1687.56 432.56 1687.44 433.76 1687.28 434.96C1687.2 436.16 1687.04 437.32 1686.8 438.44C1686.64 439.16 1686.4 439.64 1686.08 439.88C1685.84 440.04 1685.36 440.12 1684.64 440.12C1677.44 440.12 1670.24 440.08 1663.04 440C1655.84 439.84 1648.64 439.76 1641.44 439.76C1637.36 439.76 1633.28 439.84 1629.2 440C1625.2 440.24 1621.16 440.36 1617.08 440.36C1616.52 440.36 1616.04 440.2 1615.64 439.88C1615.24 439.48 1615.04 439 1615.04 438.44C1615.04 436.92 1615.52 436.12 1616.48 436.04C1617.44 435.88 1618.44 435.8 1619.48 435.8H1623.08C1625.24 435.8 1626.72 435.28 1627.52 434.24C1628.4 433.2 1628.88 431.88 1628.96 430.28C1629.12 428.6 1629.2 426.96 1629.2 425.36C1629.2 420.16 1629.24 415.04 1629.32 410C1629.4 404.88 1629.44 399.76 1629.44 394.64V378.8C1629.44 375.92 1629.44 373.04 1629.44 370.16C1629.44 367.2 1629.36 364.28 1629.2 361.4C1629.12 360.04 1628.88 359.08 1628.48 358.52C1628.08 357.88 1627.2 357.44 1625.84 357.2C1624.56 356.96 1623.24 356.84 1621.88 356.84C1620.6 356.76 1619.32 356.72 1618.04 356.72C1617.48 356.72 1617 356.48 1616.6 356C1616.28 355.44 1616.12 354.88 1616.12 354.32C1616.12 353.84 1616.24 353.32 1616.48 352.76C1616.8 352.2 1617.24 351.92 1617.8 351.92C1619.08 351.92 1620.36 351.96 1621.64 352.04C1622.92 352.12 1624.2 352.16 1625.48 352.16H1652.6C1655.64 352.16 1658.68 352.16 1661.72 352.16C1664.76 352.08 1667.8 352 1670.84 351.92C1672.76 351.84 1674.68 351.76 1676.6 351.68C1678.6 351.52 1680.56 351.44 1682.48 351.44C1682.88 351.44 1683.08 351.64 1683.08 352.04C1683.16 352.44 1683.24 352.76 1683.32 353C1683.64 355.16 1684 357.36 1684.4 359.6C1684.8 361.76 1685.24 363.88 1685.72 365.96C1685.88 366.52 1686 367.08 1686.08 367.64C1686.24 368.2 1686.32 368.8 1686.32 369.44C1686.32 370.8 1685.6 371.48 1684.16 371.48C1683.44 371.48 1682.92 371.12 1682.6 370.4C1682.6 370.32 1682.52 370.04 1682.36 369.56C1680.68 365.32 1678.52 362.24 1675.88 360.32C1673.32 358.4 1670.36 357.2 1667 356.72C1663.64 356.24 1659.88 356 1655.72 356C1653.8 356 1651.84 356.04 1649.84 356.12C1647.92 356.12 1646 356.12 1644.08 356.12C1643.28 356.12 1642.4 356.32 1641.44 356.72C1640.48 357.12 1640 357.84 1640 358.88V391.64C1641.76 391.64 1643.48 391.68 1645.16 391.76C1646.92 391.76 1648.68 391.76 1650.44 391.76C1653.96 391.76 1657.52 391.64 1661.12 391.4C1664.72 391.08 1668.28 390.6 1671.8 389.96C1672.6 389.8 1673.4 389.64 1674.2 389.48C1675 389.24 1675.8 389.12 1676.6 389.12C1677 389.12 1677.2 389.44 1677.2 390.08C1677.2 390.4 1677.04 391.12 1676.72 392.24C1676.48 393.36 1676.12 394.4 1675.64 395.36C1675.24 396.32 1674.84 396.8 1674.44 396.8H1672.76C1670.2 396.8 1667.6 396.68 1664.96 396.44C1662.4 396.12 1659.84 395.96 1657.28 395.96C1656.4 395.96 1655 396 1653.08 396.08C1651.24 396.16 1649.32 396.36 1647.32 396.68C1645.32 396.92 1643.6 397.4 1642.16 398.12C1640.72 398.84 1640 399.88 1640 401.24V430.76C1640 433.24 1640.8 434.72 1642.4 435.2C1644 435.68 1645.8 435.92 1647.8 435.92H1663.4C1666.76 435.92 1669.72 435.56 1672.28 434.84C1674.84 434.12 1677.36 432.56 1679.84 430.16C1681.52 428.56 1682.88 426.56 1683.92 424.16C1684.96 421.76 1685.88 419.48 1686.68 417.32C1686.84 417 1687 416.72 1687.16 416.48C1687.32 416.16 1687.6 416 1688 416C1688.4 416 1688.76 416.12 1689.08 416.36C1689.4 416.6 1689.56 416.92 1689.56 417.32ZM1798.64 415.4C1798.64 408.76 1797.04 403.8 1793.84 400.52C1790.72 397.16 1785.84 395.48 1779.2 395.48C1778.16 395.48 1777.08 395.48 1775.96 395.48C1774.84 395.4 1773.72 395.36 1772.6 395.36C1769.88 395.36 1767.12 395.44 1764.32 395.6C1761.52 395.76 1758.72 395.88 1755.92 395.96V432.44C1755.92 434.04 1756.56 435.16 1757.84 435.8C1759.12 436.44 1760.56 436.8 1762.16 436.88C1763.84 436.88 1765.24 436.88 1766.36 436.88C1767.72 436.88 1769.08 436.88 1770.44 436.88C1771.8 436.88 1773.12 436.84 1774.4 436.76C1778.88 436.52 1782.92 435.68 1786.52 434.24C1790.2 432.72 1793.12 430.44 1795.28 427.4C1797.52 424.28 1798.64 420.28 1798.64 415.4ZM1792.28 373.16C1792.28 369.24 1791.56 366.12 1790.12 363.8C1788.76 361.48 1786.88 359.76 1784.48 358.64C1782.16 357.44 1779.52 356.64 1776.56 356.24C1773.6 355.84 1770.52 355.64 1767.32 355.64C1766.76 355.64 1765.88 355.68 1764.68 355.76C1763.48 355.84 1762.2 356 1760.84 356.24C1759.48 356.4 1758.32 356.72 1757.36 357.2C1756.4 357.68 1755.92 358.28 1755.92 359V392H1767.08C1770.28 392 1773.64 391.8 1777.16 391.4C1780.68 390.92 1783.68 389.56 1786.16 387.32C1788 385.64 1789.48 383.48 1790.6 380.84C1791.72 378.2 1792.28 375.64 1792.28 373.16ZM1811.36 413.72C1811.36 419.56 1809.88 424.52 1806.92 428.6C1803.96 432.68 1799.8 435.72 1794.44 437.72C1791.16 439 1787.72 439.72 1784.12 439.88C1780.6 440.04 1777.08 440.12 1773.56 440.12C1769.4 440.12 1765.28 440.08 1761.2 440C1757.12 439.84 1753 439.76 1748.84 439.76C1746.44 439.76 1744 439.84 1741.52 440C1739.12 440.16 1736.72 440.24 1734.32 440.24C1733.2 440.24 1732.64 439.68 1732.64 438.56C1732.64 437.44 1732.84 436.84 1733.24 436.76C1733.72 436.6 1734.36 436.52 1735.16 436.52C1737 436.52 1738.6 436.44 1739.96 436.28C1741.32 436.12 1742.4 435.6 1743.2 434.72C1744.08 433.84 1744.6 432.32 1744.76 430.16C1744.92 428.56 1745 426.92 1745 425.24C1745 423.48 1745 421.8 1745 420.2C1745 410.6 1744.96 401.04 1744.88 391.52C1744.88 381.92 1744.88 372.36 1744.88 362.84C1744.88 361.64 1744.68 360.56 1744.28 359.6C1743.88 358.56 1743.04 357.8 1741.76 357.32C1740.88 356.92 1739.8 356.72 1738.52 356.72C1737.32 356.72 1736.2 356.72 1735.16 356.72C1733.8 356.72 1733.12 356.04 1733.12 354.68C1733.12 354.44 1733.2 354.08 1733.36 353.6C1733.52 353.04 1733.8 352.76 1734.2 352.76C1735.24 352.76 1736.28 352.8 1737.32 352.88C1738.36 352.96 1739.4 353 1740.44 353C1742.6 353 1744.76 353.04 1746.92 353.12C1749.16 353.12 1751.36 353.12 1753.52 353.12C1757.04 353.12 1760.52 352.92 1763.96 352.52C1767.48 352.04 1770.96 351.8 1774.4 351.8C1778 351.8 1781.6 352 1785.2 352.4C1788.8 352.8 1792.04 353.64 1794.92 354.92C1797.88 356.2 1800.24 358.2 1802 360.92C1803.76 363.56 1804.64 367.16 1804.64 371.72C1804.64 375.24 1803.68 378.36 1801.76 381.08C1799.92 383.72 1797.56 385.96 1794.68 387.8C1791.8 389.64 1788.84 391.12 1785.8 392.24C1788.76 392.64 1791.72 393.36 1794.68 394.4C1797.72 395.36 1800.48 396.72 1802.96 398.48C1805.52 400.16 1807.56 402.28 1809.08 404.84C1810.6 407.32 1811.36 410.28 1811.36 413.72ZM1903.4 404.84C1900.68 397.48 1898 390.12 1895.36 382.76C1892.72 375.32 1890 367.92 1887.2 360.56C1884.48 368 1881.72 375.44 1878.92 382.88C1876.2 390.24 1873.32 397.56 1870.28 404.84H1903.4ZM1939.88 437.72C1939.88 438.28 1939.76 438.8 1939.52 439.28C1939.28 439.76 1938.84 440 1938.2 440C1935.72 440 1933.28 439.96 1930.88 439.88C1928.48 439.8 1926.08 439.76 1923.68 439.76C1920.32 439.76 1917 439.8 1913.72 439.88C1910.44 439.96 1907.16 440 1903.88 440C1903.48 440 1903.2 439.76 1903.04 439.28C1902.88 438.72 1902.8 438.32 1902.8 438.08C1902.8 436.96 1903.32 436.36 1904.36 436.28C1905.48 436.12 1906.4 436.04 1907.12 436.04C1908.4 436.04 1909.76 435.92 1911.2 435.68C1912.64 435.36 1913.36 434.32 1913.36 432.56C1913.36 431.84 1913 430.4 1912.28 428.24C1911.56 426.08 1910.68 423.68 1909.64 421.04C1908.6 418.4 1907.6 415.96 1906.64 413.72C1905.76 411.4 1905.12 409.72 1904.72 408.68H1869.32C1869.08 409.32 1868.6 410.56 1867.88 412.4C1867.24 414.16 1866.48 416.2 1865.6 418.52C1864.8 420.76 1864 423 1863.2 425.24C1862.4 427.4 1861.72 429.28 1861.16 430.88C1860.68 432.48 1860.44 433.44 1860.44 433.76C1860.44 434.56 1860.88 435.16 1861.76 435.56C1862.64 435.96 1863.72 436.2 1865 436.28C1866.28 436.36 1867.48 436.4 1868.6 436.4C1869.8 436.32 1870.68 436.28 1871.24 436.28C1871.88 436.28 1872.24 436.52 1872.32 437C1872.48 437.4 1872.56 437.84 1872.56 438.32C1872.56 439.44 1872 440 1870.88 440H1845.68C1845.12 440 1844.72 439.8 1844.48 439.4C1844.32 439 1844.24 438.6 1844.24 438.2C1844.24 436.92 1844.88 436.28 1846.16 436.28C1848.8 436.28 1850.92 435.72 1852.52 434.6C1854.12 433.4 1855.48 431.64 1856.6 429.32C1857 428.44 1857.4 427.52 1857.8 426.56C1858.2 425.6 1858.6 424.64 1859 423.68C1863.64 411.84 1868.16 400 1872.56 388.16C1877.04 376.24 1881.44 364.32 1885.76 352.4C1887.04 352 1888.44 351.64 1889.96 351.32C1891.48 351 1892.92 350.84 1894.28 350.84C1894.6 350.84 1894.76 350.96 1894.76 351.2L1922.48 420.92C1923.12 422.44 1923.76 424.04 1924.4 425.72C1925.04 427.32 1925.72 428.92 1926.44 430.52C1927.48 432.6 1928.76 433.92 1930.28 434.48C1931.8 435.04 1933.28 435.32 1934.72 435.32C1936.16 435.32 1937.36 435.4 1938.32 435.56C1939.36 435.72 1939.88 436.44 1939.88 437.72Z" fill="#4B2A4A"/>
<path d="M510.723 281.474C511.537 281.627 512.321 281.092 512.474 280.277C512.627 279.463 512.092 278.679 511.277 278.526L510.723 281.474ZM425.723 265.474L510.723 281.474L511.277 278.526L426.277 262.526L425.723 265.474Z" fill="#4B2A4A"/>
<path d="M382.948 344.939C383.755 345.125 384.56 344.621 384.746 343.813C384.931 343.006 384.428 342.201 383.62 342.015L382.948 344.939ZM298.279 325.462L382.948 344.939L383.62 342.015L298.952 322.538L298.279 325.462Z" fill="#4B2A4A"/>
<path d="M318.483 405.219C319.277 405.455 320.112 405.003 320.348 404.209C320.584 403.415 320.132 402.58 319.338 402.344L318.483 405.219ZM235.212 380.438L276.847 392.828L277.703 389.953L236.068 377.562L235.212 380.438ZM276.847 392.828L318.483 405.219L319.338 402.344L277.703 389.953L276.847 392.828Z" fill="#4B2A4A"/>
<path d="M272.483 483.219C273.277 483.455 274.112 483.003 274.348 482.209C274.584 481.415 274.132 480.58 273.338 480.344L272.483 483.219ZM189.212 458.438L230.847 470.828L231.703 467.953L190.068 455.562L189.212 458.438ZM230.847 470.828L272.483 483.219L273.338 480.344L231.703 467.953L230.847 470.828Z" fill="#4B2A4A"/>
<path d="M269.483 574.219C270.277 574.455 271.112 574.003 271.348 573.209C271.584 572.415 271.132 571.58 270.338 571.344L269.483 574.219ZM186.212 549.438L227.847 561.828L228.703 558.953L187.068 546.562L186.212 549.438ZM227.847 561.828L269.483 574.219L270.338 571.344L228.703 558.953L227.847 561.828Z" fill="#4B2A4A"/>
<path d="M446.726 306.475C447.54 306.626 448.323 306.089 448.475 305.274C448.626 304.46 448.089 303.677 447.274 303.525L446.726 306.475ZM360.726 290.475L446.726 306.475L447.274 303.525L361.274 287.525L360.726 290.475Z" fill="#4B2A4A"/>
<defs>
<filter id="filter0_d_678_297" x="137.8" y="262.8" width="941.601" height="650" filterUnits="userSpaceOnUse" color-interpolation-filters="sRGB">
<feFlood flood-opacity="0" result="BackgroundImageFix"/>
<feColorMatrix in="SourceAlpha" type="matrix" values="0 0 0 0 0 0 0 0 0 0 0 0 0 0 0 0 0 0 127 0" result="hardAlpha"/>
<feOffset dy="4"/>
<feGaussianBlur stdDeviation="2"/>
<feComposite in2="hardAlpha" operator="out"/>
<feColorMatrix type="matrix" values="0 0 0 0 0 0 0 0 0 0 0 0 0 0 0 0 0 0 0.25 0"/>
<feBlend mode="normal" in2="BackgroundImageFix" result="effect1_dropShadow_678_297"/>
<feBlend mode="normal" in="SourceGraphic" in2="effect1_dropShadow_678_297" result="shape"/>
</filter>
<filter id="filter1_d_678_297" x="0" y="0.000244141" width="964.001" height="896.001" filterUnits="userSpaceOnUse" color-interpolation-filters="sRGB">
<feFlood flood-opacity="0" result="BackgroundImageFix"/>
<feColorMatrix in="SourceAlpha" type="matrix" values="0 0 0 0 0 0 0 0 0 0 0 0 0 0 0 0 0 0 127 0" result="hardAlpha"/>
<feOffset dy="4"/>
<feGaussianBlur stdDeviation="2"/>
<feComposite in2="hardAlpha" operator="out"/>
<feColorMatrix type="matrix" values="0 0 0 0 0 0 0 0 0 0 0 0 0 0 0 0 0 0 0.25 0"/>
<feBlend mode="normal" in2="BackgroundImageFix" result="effect1_dropShadow_678_297"/>
<feBlend mode="normal" in="SourceGraphic" in2="effect1_dropShadow_678_297" result="shape"/>
</filter>
<filter id="filter2_d_678_297" x="852.77" y="534.78" width="1503.84" height="479.29" filterUnits="userSpaceOnUse" color-interpolation-filters="sRGB">
<feFlood flood-opacity="0" result="BackgroundImageFix"/>
<feColorMatrix in="SourceAlpha" type="matrix" values="0 0 0 0 0 0 0 0 0 0 0 0 0 0 0 0 0 0 127 0" result="hardAlpha"/>
<feOffset dy="4"/>
<feGaussianBlur stdDeviation="35"/>
<feComposite in2="hardAlpha" operator="out"/>
<feColorMatrix type="matrix" values="0 0 0 0 0 0 0 0 0 0 0 0 0 0 0 0 0 0 0.25 0"/>
<feBlend mode="normal" in2="BackgroundImageFix" result="effect1_dropShadow_678_297"/>
<feBlend mode="normal" in="SourceGraphic" in2="effect1_dropShadow_678_297" result="shape"/>
</filter>
<linearGradient id="paint0_linear_678_297" x1="248.5" y1="1259" x2="1635.5" y2="-315" gradientUnits="userSpaceOnUse">
<stop offset="0.255909" stop-color="#4B2A4A"/>
<stop offset="1" stop-color="white"/>
</linearGradient>
<radialGradient id="paint1_diamond_678_297" cx="0" cy="0" r="1" gradientUnits="userSpaceOnUse" gradientTransform="translate(-618 593) rotate(-27.0231) scale(2685.16 2492.14)">
<stop offset="0.470909" stop-color="#4B2A4A"/>
<stop offset="1" stop-color="white"/>
</radialGradient>
<linearGradient id="paint2_linear_678_297" x1="952" y1="750" x2="2567" y2="750" gradientUnits="userSpaceOnUse">
<stop offset="0.640909" stop-color="#4B2A4A"/>
<stop offset="1" stop-color="white"/>
</linearGradient>
</defs>
</svg>
